<?xml version="1.0" encoding="UTF-8"?>
<svg width="3247px" height="2102px" viewBox="0 0 3247 2102" version="1.1" xmlns="http://www.w3.org/2000/svg" xmlns:xlink="http://www.w3.org/1999/xlink">
    <!-- Generator: Sketch 53.2 (72643) - https://sketchapp.com -->
    <title>Group</title>
    <desc>Created with Sketch.</desc>
    <defs>
        <path d="M3148.07302,0 C3089.93943,128.532292 3037.65185,222.289335 2991.21028,281.271129 C2967.4159,311.4905 2939.42669,345.879779 2907.36984,378.634212 C2868.60609,418.241502 2824.98037,455.550794 2789.72279,481.406356 C2769.43881,496.281271 2737.97745,516.191732 2718.05274,526.031102 C2712.32717,528.858547 2708.46549,534.144692 2703.17782,534.144692 C2693.02043,534.144692 2703.17782,534.144692 2665.3144,513.860717 C2657.9082,509.893111 2644.83631,502.681031 2626.09872,492.224476 C2587.43323,509.949325 2557.23264,521.2182 2535.49696,526.031102 C2513.76127,530.844004 2480.85615,533.548534 2436.78161,534.144692 C2410.51198,526.996167 2389.77725,520.234841 2374.57742,513.860717 C2359.37758,507.486592 2338.1921,496.668472 2311.02096,481.406356 C2294.68698,467.263414 2281.16433,452.839253 2270.45301,438.133874 C2259.74168,423.428495 2246.66979,401.341499 2231.23732,371.872887 C2175.6442,365.562317 2135.52701,362.407032 2110.88573,362.407032 C2094.05264,362.407032 2047.92457,362.19679 1978.36376,371.872887 C1956.85284,374.865114 1919.89093,382.077194 1867.47803,393.509128 C1814.49229,412.07674 1774.82585,426.951656 1748.4787,438.133874 C1722.13156,449.316093 1684.26814,467.346293 1634.88844,492.224476 L1394.18526,607.167005 L1249.4929,672.075727 C1132.02282,721.964551 1043.22408,758.024952 983.096687,780.25693 C922.96929,802.488909 850.848488,825.92817 766.73428,850.574713 C693.320634,869.437436 636.074748,882.058576 594.996619,888.438134 C553.918491,894.817692 492.165054,900.677507 409.736308,906.017579 C351.776427,903.981385 311.659231,901.72761 289.384719,899.256254 C233.398324,893.044566 196.649796,882.5208 166.3286,874.915483 C117.91221,862.771438 62.4693434,838.881423 0,803.245436 C35.4744116,856.204556 62.9704675,895.420242 82.4881677,920.892495 C102.005868,946.364748 127.698904,976.565334 159.567275,1011.49425 C194.455968,1048.95821 222.402779,1077.80653 243.407708,1098.03922 C264.412636,1118.2719 297.768508,1148.47249 343.475321,1188.64097 C393.000894,1230.59737 430.864315,1261.24871 457.065585,1280.595 C483.266855,1299.94128 522.933296,1326.53583 576.064909,1360.37863 C630.613838,1392.31859 674.78783,1416.65936 708.586883,1433.40095 C742.385937,1450.14253 794.673518,1473.58179 865.449628,1503.71873 C915.238744,1522.42315 954.45443,1535.9458 983.096687,1544.28668 C1011.73894,1552.62756 1054.56067,1562.99492 1111.56187,1575.38878 C1172.47043,1586.87219 1218.44744,1594.53502 1249.4929,1598.37728 C1280.53836,1602.21954 1325.61386,1605.82558 1384.71941,1609.1954 L1494.25287,1609.1954 L1626.77485,1601.08181 L1757.94456,1587.55916 L1634.88844,1690.3313 L1533.46856,1766.05815 C1482.18266,1798.16225 1443.41773,1822.05227 1417.17377,1837.72819 C1390.9298,1853.40412 1362.53224,1869.6313 1331.98107,1886.40974 C1286.47401,1907.72816 1251.31512,1923.50459 1226.50439,1933.73901 C1201.69367,1943.97344 1164.73176,1957.94684 1115.61866,1975.65923 C1093.4874,1982.71612 1075.90796,1987.67442 1062.88032,1990.53414 C1049.85269,1993.39387 1030.47023,1996.54915 1004.73293,2000 C1047.22694,1998.04882 1079.23055,1996.2458 1100.74375,1994.59094 C1122.25695,1992.93608 1154.71131,1989.78079 1198.10683,1985.12508 C1247.90734,1978.30174 1282.16472,1973.34343 1300.87897,1970.25017 C1319.59323,1967.1569 1339.8772,1963.10011 1361.7309,1958.07978 C1406.78515,1948.61924 1442.84555,1940.50565 1469.9121,1933.73901 C1496.97865,1926.97238 1534.84207,1916.60501 1583.50237,1902.63692 C1652.02094,1881.35419 1702.95625,1864.67626 1736.30832,1852.60311 C1769.66038,1840.52996 1818.34192,1821.1475 1882.35294,1794.45571 C1967.92526,1753.2883 2031.03096,1721.28469 2071.67005,1698.4449 C2112.30913,1675.6051 2165.49822,1642.24923 2231.23732,1598.37728 L2396.21366,1473.9689 L2563.89452,1311.69709 C2610.49308,1261.67168 2644.2997,1223.80826 2665.3144,1198.10683 C2686.3291,1172.4054 2715.17742,1133.64047 2751.85936,1081.81204 C2784.69822,1029.07473 2811.29276,985.802249 2831.643,951.994591 C2851.99324,918.186933 2880.39081,868.603881 2916.8357,803.245436 L3018.25558,561.189993 L3087.2211,321.83908 L3148.07302,0 Z" id="path-1"></path>
        <filter x="-5.1%" y="-2.6%" width="106.7%" height="110.5%" filterUnits="objectBoundingBox" id="filter-2">
            <feOffset dx="-65" dy="63" in="SourceAlpha" result="shadowOffsetOuter1"></feOffset>
            <feGaussianBlur stdDeviation="20.5" in="shadowOffsetOuter1" result="shadowBlurOuter1"></feGaussianBlur>
            <feColorMatrix values="0 0 0 0 0   0 0 0 0 0   0 0 0 0 0  0 0 0 0.5 0" type="matrix" in="shadowBlurOuter1"></feColorMatrix>
        </filter>
    </defs>
    <g id="Page-1" stroke="none" stroke-width="1" fill="none" fill-rule="evenodd">
        <g id="Group" transform="translate(99.000000, 0.000000)">
            <g id="Path-2">
                <use fill="black" fill-opacity="1" filter="url(#filter-2)" xlink:href="#path-1"></use>
                <use fill="#FDD355" fill-rule="evenodd" xlink:href="#path-1"></use>
            </g>
            <path d="M2704.53009,535.496957 C2704.53009,563.369236 2704.53009,585.005477 2704.53009,600.40568 C2704.53009,615.805882 2702.27631,637.442123 2697.76876,665.314402 C2692.1329,695.803663 2687.17459,718.341414 2682.89385,732.927654 C2678.6131,747.513894 2671.40102,766.445605 2661.25761,789.722786 C2649.11051,812.526342 2639.19389,829.655033 2631.50778,841.108857 C2623.82166,852.562682 2610.74976,869.691373 2592.29209,892.494929 C2570.92606,870.7371 2555.14964,854.960674 2544.96281,845.165652 C2534.77599,835.370631 2527.11315,828.609306 2521.97431,824.881677 C2490.46292,800.502374 2465.67139,782.922929 2447.59973,772.14334 C2429.52807,761.363751 2402.93352,748.291856 2367.81609,732.927654 C2327.57631,718.782966 2296.92497,709.317111 2275.86207,704.530088 C2254.79917,699.743065 2225.95085,695.68627 2189.31711,692.359703 C2159.53684,690.836651 2133.39305,690.836651 2110.88573,692.359703 C2088.37841,693.882754 2054.57179,697.939549 2009.46586,704.530088 C1957.78312,721.091112 1919.46894,734.163008 1894.52333,743.745774 C1869.57771,753.328541 1833.96807,768.654211 1787.69439,789.722786 C1747.04936,813.91919 1716.84877,832.400145 1697.09263,845.165652 C1677.33649,857.93116 1648.93892,877.313625 1611.89993,903.313049 C1576.46342,929.937678 1549.86888,950.672408 1532.11629,965.517241 C1514.36371,980.362074 1488.67068,1003.35058 1455.03719,1034.48276 C1474.38687,1026.88582 1490.1633,1021.02601 1502.36646,1016.90331 C1514.56963,1012.78062 1532.14908,1007.37156 1555.1048,1000.67613 C1575.2635,994.343939 1591.94144,989.385633 1605.13861,985.801217 C1618.33578,982.216801 1638.169,977.258495 1664.63827,970.926302 C1675.65728,968.042102 1690.53219,964.886817 1709.26302,961.460446 C1727.99384,958.034076 1750.08084,954.428036 1775.524,950.642326 C1806.88551,948.50078 1830.77553,947.59927 1847.19405,947.937796 C1863.61257,948.276322 1883.44579,950.079342 1906.69371,953.346856 C1928.92812,957.794175 1944.70455,961.85097 1954.02299,965.517241 C1963.34143,969.183513 1975.06106,975.944838 1989.18188,985.801217 C2000.68279,993.835295 2008.79638,1000.59662 2013.52265,1006.08519 C2018.24892,1011.57377 2024.10874,1021.03962 2031.1021,1034.48276 C2035.74971,1045.49157 2038.90499,1054.50667 2040.56795,1061.52806 C2042.23091,1068.54945 2043.13242,1076.66304 2043.27248,1085.86883 C2043.27248,1097.58846 2043.27248,1110.66036 2043.27248,1125.08452 C2043.27248,1139.50868 2041.46946,1155.2851 2037.86342,1172.41379 C2036.23725,1181.46896 2034.88498,1188.23029 2033.80663,1192.69777 C2032.72827,1197.16525 2030.92525,1203.47582 2028.39757,1211.62948 C2011.43246,1254.78781 1995.65603,1289.49595 1981.06829,1315.75389 C1966.48054,1342.01183 1941.68902,1380.32601 1906.69371,1430.69642 C1870.51586,1469.80837 1843.0198,1499.10745 1824.20554,1518.59364 C1805.39129,1538.07984 1782.40278,1561.06835 1755.24003,1587.55916 C1673.29524,1599.36853 1606.5835,1606.58061 1555.1048,1609.1954 C1503.6261,1611.81019 1428.35001,1611.81019 1329.27654,1609.1954 C1263.38989,1603.34782 1207.49627,1596.13574 1161.59567,1587.55916 C1115.69508,1578.98258 1072.87335,1569.06597 1033.13049,1557.80933 C986.552494,1544.69549 955.901153,1535.68039 941.176471,1530.76403 C909.551885,1520.20504 894.347553,1515.19196 873.563218,1507.77552 C838.262834,1495.17935 789.130537,1475.34613 726.166329,1448.27586 C639.118444,1398.99995 574.660477,1361.13653 532.792427,1334.6856 C490.924378,1308.23466 433.678491,1267.21596 361.054767,1211.62948 C317.782244,1172.70623 286.229393,1143.85791 266.396214,1125.08452 C246.563035,1106.31113 219.066979,1079.26583 183.908046,1043.94861 C142.068835,998.665201 110.065229,961.70329 87.8972279,933.06288 C65.7292271,904.422471 36.4301512,861.149989 0,803.245436 C35.849284,822.442734 63.7960949,836.41614 83.8404327,845.165652 C103.884771,853.915165 131.380826,863.831775 166.3286,874.915483 C197.081794,883.896851 220.521055,889.756666 236.646383,892.494929 C252.771711,895.233192 277.563236,898.839232 311.02096,903.313049 L389.452333,906.017579 C419.202164,906.017579 457.967095,903.763804 505.747126,899.256254 C560.750681,893.475695 601.318632,888.066635 627.45098,883.029074 C653.583329,877.991513 688.74222,870.328677 732.927654,860.040568 C778.903771,848.321236 819.471722,836.601605 854.631508,824.881677 C889.791293,813.161748 949.290955,791.525508 1033.13049,759.972955 C1072.08993,746.719831 1128.43431,724.182081 1202.16362,692.359703 C1275.89294,660.537324 1367.84696,619.067863 1478.02569,567.951318 C1580.79315,518.484915 1655.16772,482.424514 1701.14943,459.770115 C1747.13113,437.115716 1768.76737,426.748351 1766.05815,428.668019 C1809.31977,412.357327 1844.47866,400.637697 1871.53482,393.509128 C1898.59098,386.380559 1935.10214,379.168479 1981.06829,371.872887 C2032.15386,363.759297 2071.8203,359.702502 2100.06761,359.702502 C2128.31493,359.702502 2170.23514,363.759297 2225.82826,371.872887 C2245.35825,406.566522 2262.03618,431.358048 2275.86207,446.247465 C2289.68796,461.136881 2314.02873,480.519346 2348.88438,504.394861 C2387.14438,522.379132 2416.89421,532.746497 2438.13387,535.496957 C2459.37354,538.247418 2492.27866,535.993643 2536.84922,528.735632 C2563.40625,523.046007 2581.8872,518.087702 2592.29209,513.860717 C2602.69698,509.633732 2614.86736,502.872406 2628.80325,493.576741 L2704.53009,535.496957 Z" id="Path-3" fill="#F8F3FA"></path>
            <circle id="Oval" fill="#FDD355" cx="2474.64503" cy="278.566599" r="263.691684"></circle>
        </g>
    </g>
</svg>