<svg height="512" viewBox="0 0 512 512" width="512" xmlns="http://www.w3.org/2000/svg"><g id="Businessman"><g id="Filled"><path d="m88 132.539a12.525 12.525 0 0 1 17.459-11.513 240 240 0 0 0 189.082 0 12.525 12.525 0 0 1 17.459 11.513 31.488 31.488 0 0 0 17.407 28.161l14.593 7.3v-64a48 48 0 0 0 -48-48l-2.733-5.466a48 48 0 0 0 -42.933-26.534h-111.253c-28.459 0-48.657-5.43-75.081-16h-8v160l14.593-7.3a31.488 31.488 0 0 0 17.407-28.161z" fill="#ffd740"/><path d="m352 168h-8l-14.593-7.3a31.488 31.488 0 0 1 -17.407-28.161 12.525 12.525 0 0 0 -17.459-11.513 240 240 0 0 1 -189.082 0 12.525 12.525 0 0 0 -17.459 11.513 31.488 31.488 0 0 1 -17.407 28.161l-14.593 7.3h-8a40 40 0 0 0 0 80h8v4a60 60 0 0 0 60 60h168a60 60 0 0 0 60-60v-4h8a40 40 0 0 0 0-80z" fill="#ffe7de"/><path d="m176 312h48v32h-48z" fill="#f4c2b5"/><path d="m336 512v-112a56 56 0 0 0 -56-56h-160a56 56 0 0 0 -56 56v112z" fill="#01579b"/><path d="m280 344h-160l80 128z" fill="#e2e2e2"/><path d="m184 344h32v48h-32z" fill="#525252"/><path d="m216 392h-32l-8 40 24 40 24-40z" fill="#3f3f3f"/><path d="m232 504 48-64-37.774-30.219a1 1 0 0 1 .625-1.781h45.149v-64h-8l-80 128-80-128h-8v64h45.149a1 1 0 0 1 .625 1.781l-37.774 30.219 48 64v8h64z" fill="#0277bd"/><circle cx="112" cy="216" fill="#fff" r="16"/><circle cx="288" cy="216" fill="#fff" r="16"/><path d="m120 344 24.69 39.51 55.31-39.51 55.31 39.51 24.69-39.51z" fill="#f5f5f5"/><path d="m296 56-2.733-5.466a47.949 47.949 0 0 0 -6.055-9.251 168.083 168.083 0 0 1 -136.324 94.059 239.992 239.992 0 0 0 143.653-14.316 12.525 12.525 0 0 1 17.459 11.513 31.488 31.488 0 0 0 17.407 28.161l14.593 7.3v-64a48 48 0 0 0 -48-48z" fill="#ffc400"/><path d="m352 168h-4.651a252.563 252.563 0 0 1 -168.129 144h104.78a60 60 0 0 0 60-60v-4h8a40 40 0 0 0 0-80z" fill="#f9d8cd"/><circle cx="84" cy="244" fill="#fff5f2" r="12"/><circle cx="316" cy="244" fill="#fff5f2" r="12"/><circle cx="88" cy="48" fill="#ffe7a4" r="24"/><circle cx="132" cy="76" fill="#ffe7a4" r="12"/><path d="m504 384v-8a16 16 0 0 0 -16-16h-192a16 16 0 0 0 -16 16v8l112 48z" fill="#c97e67"/><path d="m392 432-112-48v104a16 16 0 0 0 16 16h192a16 16 0 0 0 16-16v-104z" fill="#ae583e"/><path d="m504 384v-8a16 16 0 0 0 -16-16h-42.028a140.025 140.025 0 0 1 -165.972 22.39v1.61l112 48z" fill="#c0694e"/></g><g id="Outline"><circle cx="56" cy="216" r="8"/><circle cx="344" cy="216" r="8"/><path d="m219.563 233.344a35.176 35.176 0 0 1 -39.125 0 8 8 0 1 0 -8.875 13.312 51.129 51.129 0 0 0 56.875 0 8 8 0 0 0 -8.875-13.312z"/><path d="m256 336h-24v-16h52a68.09 68.09 0 0 0 67.884-64h.116a48 48 0 0 0 0-96v-56a56.075 56.075 0 0 0 -50.942-55.773l-.636-1.271a55.692 55.692 0 0 0 -50.088-30.956h-111.253c-28.052 0-47.681-5.657-72.11-15.428l-1.43-.572h-17.541v160a48 48 0 0 0 0 96h.116a68.09 68.09 0 0 0 67.884 64h52v16h-48a64.072 64.072 0 0 0 -64 64v104a8 8 0 0 0 16 0v-104a48.059 48.059 0 0 1 43.693-47.8l29.873 47.8h-25.566v-16a8 8 0 0 0 -16 0v32h33.194l-28.246 22.6 52.652 70.2a8 8 0 1 0 12.8-9.6l-43.348-57.8 26.927-21.541 34.021 54.441v29.7a8 8 0 0 0 16 0v-29.7l38.784-62.055a8 8 0 0 0 -13.568-8.48l-5.08 8.127-4.136-20.685v-20.232l16.147 11.535a8 8 0 0 0 9.3-13.02l-24.485-17.49h31.038a8 8 0 0 0 0-16zm-192-319.395c24.893 9.772 45.617 15.395 75.081 15.395h111.253a39.732 39.732 0 0 1 31.986 16h-50.32a8 8 0 0 0 0 16h64a40.045 40.045 0 0 1 40 40v51.056l-3.016-1.508a23.361 23.361 0 0 1 -12.984-21.009 20.526 20.526 0 0 0 -28.611-18.866 233.037 233.037 0 0 1 -182.778 0 20.526 20.526 0 0 0 -28.611 18.866 23.361 23.361 0 0 1 -12.984 21.009l-3.016 1.508zm70.434 335.395h40.6l-28.071 20.052zm41.566 39.207-4.136 20.68-16.4-26.241 20.536-14.671zm24 65.7-15.775-25.239 6.334-31.668h18.882l6.334 31.666zm-8.022-97.343 8.022-5.733 8.022 5.731c-.008.146-.022.29-.022.438v24h-16v-24c0-.148-.014-.292-.022-.438zm24.022-23.564h-32v-16h32zm-100-32a52.059 52.059 0 0 1 -52-52v-12h-16a32 32 0 0 1 0-64v8a8 8 0 0 0 16 0v-11.056l10.171-5.086a39.271 39.271 0 0 0 21.829-35.319 4.525 4.525 0 0 1 6.308-4.159 249.106 249.106 0 0 0 195.384 0 4.525 4.525 0 0 1 6.308 4.159 39.271 39.271 0 0 0 21.829 35.319l10.171 5.086v11.056a8 8 0 0 0 16 0v-8a32 32 0 0 1 0 64h-16v12a52.059 52.059 0 0 1 -52 52z"/><circle cx="280" cy="439.569" r="8"/><circle cx="200" cy="56" r="8"/><path d="m504.97 359.029a23.854 23.854 0 0 0 -16.97-7.029h-48v-8a24.027 24.027 0 0 0 -24-24h-48a24.027 24.027 0 0 0 -24 24v8h-48a24 24 0 0 0 -24 24v31.569a8 8 0 0 0 16 0v-11.436l104 44.567 104-44.571v91.871a8.037 8.037 0 0 1 -8 8h-192a8.037 8.037 0 0 1 -8-8v-16.431a8 8 0 1 0 -16 0v16.431a24 24 0 0 0 24 24h192a24 24 0 0 0 24-24v-112a23.855 23.855 0 0 0 -7.03-16.971zm-144.97-15.029a8.009 8.009 0 0 1 8-8h48a8.009 8.009 0 0 1 8 8v8h-64zm136 34.724-104 44.576-104-44.576v-2.724a8.036 8.036 0 0 1 8-8h192a8.036 8.036 0 0 1 8 8z"/><path d="m408 480a8 8 0 0 0 0-16h-32a8 8 0 0 0 0 16z"/><path d="m399.39 396.939a7.986 7.986 0 0 0 -.74-1.379 8.375 8.375 0 0 0 -.99-1.22 8.045 8.045 0 0 0 -7.22-2.18 7.919 7.919 0 0 0 -1.5.449 8.032 8.032 0 0 0 -1.38.741 7.589 7.589 0 0 0 -2.21 2.21 7.986 7.986 0 0 0 -.74 1.379 7.893 7.893 0 0 0 -.45 1.5 7.69 7.69 0 0 0 0 3.121 7.8 7.8 0 0 0 1.19 2.879 7.728 7.728 0 0 0 .99 1.221 8.369 8.369 0 0 0 1.22.989 8.032 8.032 0 0 0 1.38.741 7.85 7.85 0 0 0 1.5.45 7.443 7.443 0 0 0 1.56.16 8.055 8.055 0 0 0 5.66-2.34 8.331 8.331 0 0 0 .99-1.221 7.8 7.8 0 0 0 1.19-2.879 7.69 7.69 0 0 0 0-3.121 7.893 7.893 0 0 0 -.45-1.5z"/><path d="m254.8 473.6a8 8 0 0 0 -11.2 1.6l-18 24a8 8 0 1 0 12.8 9.6l18-24a8 8 0 0 0 -1.6-11.2z"/><path d="m104 464a8 8 0 0 0 -8 8v32a8 8 0 0 0 16 0v-32a8 8 0 0 0 -8-8z"/><path d="m112 192a24 24 0 1 0 24 24 24.027 24.027 0 0 0 -24-24zm0 32a8 8 0 1 1 8-8 8.009 8.009 0 0 1 -8 8z"/><path d="m312 216a24 24 0 1 0 -24 24 24.027 24.027 0 0 0 24-24zm-32 0a8 8 0 1 1 8 8 8.009 8.009 0 0 1 -8-8z"/></g></g></svg>