<svg xmlns="http://www.w3.org/2000/svg" xmlns:xlink="http://www.w3.org/1999/xlink" xmlns:fi="http://pattern.flaticon.com/" x="0" y="0" width="2160" height="1080" viewBox="0 0 3150 1575"><rect x="0px" y="0px" width="100%" height="100%" opacity="1" fill="#ffffff"/><defs><path d="M509.866,153.61l-64-85.333c-2.01-2.688-5.177-4.271-8.531-4.271H256.855h-0.896H74.668c-3.354,0-6.521,1.583-8.531,4.271    l-64,85.333c-3.042,4.042-2.813,9.677,0.542,13.458l245.333,277.323c2.021,2.292,4.938,3.604,7.99,3.604s5.969-1.313,7.99-3.604    l245.333-277.323C512.678,163.287,512.907,157.652,509.866,153.61z M415.156,85.339h11.512v42.667h-25.24    C408.057,118.476,413.522,104.651,415.156,85.339z M393.936,85.339c-2.12,20.888-9.904,32.306-16.171,37.967    c-5.958-10.383-17.339-25.538-37.221-37.967H393.936z M24.418,159.454l55.583-74.115h51.376    c-25.862,10.139-49.93,25.094-65.439,47.208c-13.574,19.354-19.693,35.688-21.661,49.354L24.418,159.454z M159.903,312.606    c2.836-3.948,11.947-13.934,32.098-13.934c23.372,0,35.012,26.832,39.882,42.823c-16.375,0.728-32.234,0.684-46.387,0.042    L159.903,312.606z M256.001,421.235l-51.217-57.896c1.301,0.009,2.458,0.031,3.832,0.031c28.697,0,72.668-2.1,109.608-12.471    L256.001,421.235z M363.043,295.871c-7.279,26.766-57.576,39.647-109.365,44.185c-5.249-19.63-21.328-62.716-61.677-62.716    c-24.883,0-39.147,11.04-46.346,19.16l-38.059-43.021c9.447,1.669,19.793,2.527,30.957,2.527c0.042,0,0.083,0,0.125,0    c164.125-0.25,211.708,17.052,222.719,31.458C363.459,290.152,363.938,292.589,363.043,295.871z M381.379,279.509    c-0.879-1.706-1.807-3.4-3.034-5.003c-21.052-27.542-94.552-39.833-238.271-39.833c-0.5,0-0.906-0.01-1.521,0    c-31.197,0-54.643-7.48-65.957-20.758l-0.004-0.005c-1.616-1.897-2.983-3.911-4.091-6.039    c-8.052-15.479-2.76-37.885,14.896-63.073c21.37-30.483,64.161-45.344,101.768-52.586c-12.283,16.021-14.497,35.077-14.497,46.461    c0,35.885,27.917,53.333,85.333,53.333c103.87,0,156.374,1.776,168.982,38.212L381.379,279.509z M440.528,212.647    c-23.241-41.868-89.513-41.974-184.527-41.974c-64,0-64-21.615-64-32c0-24.219,11.115-53.125,64.042-53.333h0.792    c85.792,0,105.594,54.427,106.375,56.688c1.448,4.365,5.531,7.313,10.125,7.313h64c5.896,0,10.667-4.771,10.667-10.667v-31.999    l39.583,52.78L440.528,212.647z" transform="matrix(0.11567187309265137 0 0 0.11567187309265137 8.387884395009337 200.38789916607334)" id="L1_392"/><path d="M511.917,9.359c-0.667-5.344-5.188-9.354-10.573-9.354c-205.15,0-282.183,85.344-285.371,88.979    c-3.167,3.625-3.521,8.917-0.854,12.927c2.667,4,7.656,5.729,12.261,4.208c0.229-0.094,24.615-7.823,38.782,2.375    c7.417,5.354,11.177,15.5,11.177,30.177c0,17.427-8.479,27.302-25.219,29.365c-25.219,3.115-55.699-13.021-60.439-31.948    c-1.313-5.24-6.354-8.771-11.646-8c-5.344,0.656-9.365,5.198-9.365,10.583v6.25c0,6.875-2.677,13.344-7.542,18.208    c-4.865,4.865-11.334,7.542-18.209,7.542h-6.25c-5.386,0-9.927,4.021-10.584,9.365c-0.667,5.344,2.771,10.344,8,11.646    c18.927,4.74,35.053,35.24,31.949,60.438c-2.063,16.74-11.938,25.219-29.365,25.219c-14.646,0-24.782-3.75-30.136-11.135    c-8.542-11.781-4.636-32.042-2.406-38.854c1.5-4.563-0.24-9.583-4.25-12.229c-3.99-2.646-9.292-2.302-12.896,0.854    C85.346,219.161,0,296.193,0,501.339c0,5.385,4.01,9.906,9.354,10.573c0.438,0.063,0.885,0.083,1.323,0.083    c4.823,0,9.125-3.271,10.334-8.052c0.135-0.552,14.302-54.854,55.689-76.771c22.375-11.833,49.189-12.229,79.658-1.146    c2.688,0.99,5.688,0.833,8.292-0.417c2.583-1.25,4.563-3.5,5.469-6.229c0.156-0.458,15.657-45.656,59.689-65.438    c32.282-14.5,71.97-11.833,118.003,7.865c4,1.729,8.656,0.813,11.74-2.26c3.083-3.083,3.979-7.74,2.26-11.74    c-19.667-45.906-22.344-85.521-7.958-117.771c19.584-43.917,65.095-59.76,65.553-59.917c2.719-0.927,4.969-2.906,6.208-5.49    c1.24-2.594,1.406-5.573,0.417-8.271c-11.084-30.479-10.698-57.281,1.146-79.656c21.917-41.385,76.22-55.552,76.772-55.688    C509.167,19.693,512.584,14.693,511.917,9.359z M408.394,66.589c-13.521,25.448-15.407,54.802-5.625,87.375    c-16.782,7.833-50.626,27.781-68.283,67.104c-14.521,32.333-14.782,70.115-0.844,112.573    c-42.428-13.917-80.231-13.656-112.575,0.844c-39.324,17.656-59.272,51.5-67.106,68.281c-32.553-9.771-61.918-7.896-87.377,5.625    c-18.969,10.083-33.011,25.219-43.157,40.24c8.177-100.042,38.532-160.792,59.314-191.552c1.135,7.365,3.646,14.896,8.448,21.552    c9.583,13.302,25.563,20.042,47.48,20.042c28.261,0,47.147-16.427,50.532-43.938c2.823-22.927-5.875-50.677-22.375-68.115    c4.146-2.177,7.979-5,11.386-8.406s6.229-7.24,8.406-11.385c17.438,16.49,45.22,25.177,68.116,22.375    c27.511-3.385,43.938-22.271,43.938-50.531c0-21.917-6.74-37.896-20.042-47.479c-6.719-4.844-14.313-7.354-21.74-8.479    c30.574-20.792,91.189-51.167,191.785-59.302C433.645,33.557,418.488,47.599,408.394,66.589z" transform="matrix(0.0746295303106308 0 0 0.0746295303106308 327.8948402404785 14.894840240478516)" id="L1_395"/><path d="M15.569,199.29c-1.884,0-3.768-0.717-5.201-2.151l-8.217-8.217c-2.868-2.868-2.868-7.534,0-10.402l13.189-13.189  c0.773-0.771,2.02-0.779,2.801-0.027L90.024,93.42L56.44,59.836c-0.375-0.375-0.586-0.884-0.586-1.414V44.279  c0-0.53,0.211-1.039,0.586-1.414L98.72,0.586C99.095,0.211,99.603,0,100.134,0h14.143c0.53,0,1.039,0.211,1.414,0.586l81.628,81.628  c0.002,0.002,0.004,0.004,0.006,0.006s0.004,0.004,0.006,0.006l1.374,1.374c0.375,0.375,0.586,0.884,0.586,1.414v14.143  c0,0.53-0.211,1.039-0.586,1.414l-42.279,42.279c-0.375,0.375-0.884,0.586-1.414,0.586h-14.142c-0.53,0-1.039-0.211-1.414-0.586  l-33.585-33.584l-12.331,12.33c-0.01,0.01-0.019,0.02-0.028,0.029l-13.733,13.732c-0.009,0.01-0.018,0.019-0.027,0.027  l-41.256,41.256c-0.009,0.009-0.018,0.019-0.027,0.027l-4.479,4.48c0.754,0.783,0.745,2.029-0.027,2.801l-13.188,13.189l0,0  C19.338,198.573,17.454,199.29,15.569,199.29z M16.755,169.572L4.979,181.348c-1.309,1.309-1.309,3.438,0,4.746l8.217,8.217  c1.307,1.308,3.437,1.309,4.747,0l11.774-11.775L16.755,169.572z M28.992,176.151l2.167,2.168l1.645-1.645L28.992,176.151z   M24.312,171.472l12.041,1.653l10.211-10.211l-17.918-2.458l-7.676,7.675L24.312,171.472z M32.196,156.905l17.919,2.458l10.21-10.21  l-17.918-2.458L32.196,156.905z M45.957,143.145l17.919,2.458l10.21-10.211l-17.917-2.458L45.957,143.145z M142.935,139.436h11.247  l41.107-41.107V87.082L142.935,139.436z M107.311,105.05l32.177,32.177l53.594-53.593L115.235,5.787L61.641,59.38l32.598,32.598  c0.01,0.01,0.019,0.019,0.028,0.028l13.001,13.001C107.283,105.021,107.297,105.035,107.311,105.05z M59.719,129.383l17.918,2.459  l10.21-10.211l-17.917-2.458L59.719,129.383z M73.479,115.622l17.918,2.459l10.21-10.211l-17.917-2.458L73.479,115.622z   M87.24,101.861l13.012,1.785l-7.398-7.397L87.24,101.861z M59.854,45.107v10.403L111.365,4h-10.403L59.854,45.107z" transform="matrix(-0.16406862437725067 0 0 0.16406862437725067 275.2811720147729 -13.368484236299992)" id="L1_399"/><path d="M130.272,223.415c-0.251,0-0.507-0.048-0.753-0.148c-0.965-0.393-1.467-1.461-1.153-2.455  c0.075-0.236,7.473-23.7,9.604-35.006c2.278-12.084,3.991-24.183,1.867-49.953l-2.179-26.428c-0.029-0.357,0.038-0.715,0.193-1.037  c0.08-0.178,0.835-1.985-0.613-3.545c-0.822-0.885-1.782-2.082-2.798-3.349c-2.07-2.581-4.647-5.792-6.801-7.248  c-0.971-0.656-1.875-1.268-2.677-1.811c0.164,0.732,0.395,1.444,0.717,2.029c1.316,2.385,2.887,3.823,2.903,3.837  c0.436,0.396,0.681,0.968,0.66,1.556c-0.02,0.564-0.522,13.939-3.971,25.146c-3.389,11.014-8.42,24.42-8.47,24.554  c-0.313,0.832-1.141,1.358-2.022,1.291c-0.886-0.066-1.622-0.71-1.806-1.579l-0.266-1.253l-0.797,0.081  c-0.134,0.014-0.269,0.014-0.404,0l-0.796-0.081l-0.266,1.253c-0.185,0.869-0.92,1.513-1.806,1.579  c-0.892,0.068-1.709-0.459-2.022-1.291c-0.05-0.134-5.081-13.541-8.47-24.554c-3.448-11.207-3.951-24.583-3.971-25.146  c-0.021-0.593,0.223-1.165,0.665-1.56c0.011-0.01,1.582-1.449,2.898-3.833c0.322-0.584,0.553-1.296,0.717-2.029  c-0.802,0.542-1.707,1.155-2.677,1.811c-2.154,1.456-4.731,4.667-6.801,7.248c-1.017,1.267-1.977,2.464-2.799,3.349  c-1.448,1.56-0.693,3.367-0.602,3.568c0.14,0.31,0.21,0.675,0.183,1.014l-2.179,26.428c-2.125,25.77-0.412,37.869,1.867,49.953  c2.131,11.306,9.529,34.77,9.604,35.006c0.314,0.994-0.188,2.062-1.153,2.455c-0.964,0.392-2.07-0.021-2.54-0.952  c-0.445-0.882-10.938-21.764-14.456-35.647c-3.791-14.958-5.095-25.151-5.366-41.948c-0.283-17.541,2.728-45.343,2.758-45.622  c0.111-1.014,0.968-1.783,1.988-1.783c0.08-0.002,2.503-0.082,5.166-2.287c1.754-1.454,5.493-4.752,8.576-7.492  c-3.91,0.604-7.789,1.404-9.091,2.208c-1.747,1.079-7.167,6.591-11.522,11.021c-3.068,3.12-5.965,6.067-7.622,7.53  c-1.993,1.761-7.118,5.581-12.075,9.276c-4.744,3.536-10.648,7.937-11.409,8.806c-0.132,0.155-0.155,0.236-0.155,0.236l0,0  c0.024,0,0.173,0.154,0.174,0.155c0.692,0.494,0.995,1.373,0.757,2.188c-0.011,0.038-1.119,3.863-2.125,9.903  c-0.917,5.502-1.715,11.732-0.554,21.991c1.103,9.737,11.374,42.68,11.478,43.012c0.318,1.018-0.219,2.106-1.22,2.474  c-1,0.368-2.114-0.115-2.531-1.096c-0.062-0.146-6.194-14.595-8.172-18.738c-2.134-4.468-10.915-29.935-11.309-41.97  c-0.378-11.549,1.127-27.921,1.192-28.613c0.07-0.76,0.567-1.413,1.28-1.684c0.714-0.271,1.519-0.114,2.076,0.407  c1.004,0.932,2.422,1.847,2.916,1.88c0.191,0.011,0.354,0.019,0.5,0.019c0.367,0,0.405,0,1.878-0.729  c0.413-0.205,0.909-0.45,1.521-0.744c3.766-1.811,8.944-5.368,16.296-11.195c8.271-6.556,22.248-22.99,22.388-23.155  c0.359-0.423,0.878-0.678,1.433-0.704c0.005,0,4.092-0.189,8.179-0.44c1.86-0.115,4.607-0.596,6.975-1.068  c-2.021-1.192-4.25-2.382-5.719-2.82c-0.667-0.199-1.503-0.299-2.486-0.299c-3.083,0-7.661,0.976-14.409,3.072  c-8.167,2.537-20.382,7.384-20.504,7.432c-0.653,0.26-1.395,0.158-1.953-0.27l-10.988-8.398c-0.52-0.397-0.813-1.023-0.784-1.676  c0.026-0.598,0.706-14.858,6.265-34.188c5.557-19.323,16.861-39.626,16.975-39.83c0.511-0.913,1.64-1.277,2.587-0.837  c0.949,0.44,1.398,1.537,1.031,2.516c0,0-1.705,4.545-3.282,8.775c-1.813,4.855-9.607,29.035-10.556,38.526  c-0.929,9.293-0.532,20.62,0.077,23.664c1.9-0.092,6.048-1.207,11.695-2.724c1.557-0.418,3.241-0.871,5.051-1.349  c11.233-2.966,21.268-5.68,21.27-5.681c0.617-0.168,1.28-0.027,1.779,0.375c0.001,0.001,2.358,1.906,5.044,4.061l-2.219-3.798  c-1.612-0.744-6.416-2.912-10.107-4.06c-2.915-0.906-5.387-1.028-7.42-1.028c-0.609,0-1.195,0.012-1.759,0.023  c-0.55,0.011-1.081,0.021-1.594,0.021c-1.407,0-1.758,1.522-1.772,1.587c-0.141,0.64-0.585,1.169-1.19,1.419  c-0.606,0.25-1.295,0.188-1.845-0.167l-8.336-5.368c-0.4-0.258-0.695-0.649-0.833-1.105c-0.136-0.453-3.274-11.289,2.48-28.553  C63.468,10.749,72.42,1.04,72.798,0.635c0.677-0.725,1.784-0.844,2.599-0.28c0.816,0.564,1.095,1.641,0.656,2.53  c0,0-4.923,9.974-7.701,15.654c-2.618,5.356-3.274,11.88-3.523,21.34c-0.159,6.022,0.832,8.949,1.389,10.104  c1.854,0.066,5.917,0.277,11.073,0.934c7.195,0.916,18.377,6.396,18.85,6.629c0.564,0.278,0.964,0.805,1.081,1.422l0,0  c0,0,0.465,2.063,2.895,5.541c0.323,0.462,0.619,0.873,0.889,1.235c0.127-0.361,0.275-0.685,0.449-0.946  c0.298-0.446,1.086-1.627,6.684-2.806c0.95-0.201,1.908,0.312,2.269,1.214c0.361,0.902,0.021,1.934-0.806,2.444  c-0.007,0.004-1.111,0.71-1.951,1.852c0.354-0.085,0.731-0.077,1.09,0.043c0.403,0.134,1.248,0.551,2.382,1.836  c-0.005,0.044-0.052,0.057-0.135,0.089c0.417-0.161,0.872-0.177,1.297-0.049c1.143-1.326,1.987-1.743,2.39-1.877  c0.359-0.12,0.733-0.132,1.084-0.051c-0.839-1.138-1.939-1.841-1.953-1.85c-0.819-0.517-1.154-1.548-0.79-2.445  c0.364-0.897,1.314-1.41,2.261-1.208c5.598,1.179,6.386,2.36,6.683,2.805c0.174,0.261,0.323,0.585,0.45,0.947  c0.27-0.363,0.566-0.773,0.889-1.235c2.432-3.482,2.896-5.546,2.9-5.566c0.129-0.597,0.528-1.127,1.076-1.397  c0.473-0.233,11.654-5.713,18.85-6.629c5.167-0.658,9.235-0.868,11.084-0.934c0.531-1.111,1.537-4.037,1.377-10.103  c-0.249-9.46-0.905-15.984-3.523-21.34c-2.777-5.681-7.701-15.654-7.701-15.654c-0.439-0.889-0.16-1.966,0.656-2.53  c0.815-0.565,1.922-0.445,2.599,0.28c0.378,0.405,9.331,10.114,15.024,27.193c5.754,17.264,2.617,28.1,2.48,28.553  c-0.137,0.456-0.432,0.847-0.832,1.105l-8.336,5.368c-0.551,0.354-1.241,0.417-1.845,0.167c-0.605-0.25-1.05-0.78-1.191-1.419  c-0.062-0.245-0.46-1.587-1.773-1.587c-0.513,0-1.043-0.01-1.594-0.021c-0.564-0.011-1.15-0.023-1.759-0.023  c-2.033,0-4.505,0.122-7.42,1.028c-3.691,1.147-8.495,3.315-10.106,4.059l-2.219,3.797c2.687-2.154,5.043-4.059,5.044-4.06  c0.499-0.403,1.162-0.542,1.779-0.375c0.002,0,10.037,2.714,21.271,5.681c1.81,0.478,3.495,0.931,5.052,1.349  c5.647,1.517,9.793,2.632,11.694,2.724c0.609-3.044,1.006-14.371,0.077-23.664c-0.949-9.491-8.744-33.67-10.556-38.526  c-1.578-4.229-3.283-8.775-3.283-8.775c-0.367-0.979,0.082-2.076,1.031-2.516c0.947-0.439,2.077-0.076,2.587,0.837  c0.114,0.203,11.418,20.507,16.975,39.83c5.559,19.33,6.238,33.59,6.265,34.188c0.029,0.653-0.264,1.279-0.784,1.676l-10.988,8.398  c-0.558,0.428-1.301,0.529-1.953,0.27c-0.123-0.048-12.339-4.896-20.504-7.432c-6.748-2.096-11.326-3.072-14.409-3.072  c-0.983,0-1.82,0.101-2.487,0.299c-1.47,0.439-3.699,1.627-5.719,2.819c2.368,0.473,5.116,0.954,6.976,1.068  c4.089,0.251,8.179,0.44,8.179,0.44c0.555,0.026,1.074,0.281,1.433,0.704c0.14,0.165,14.117,16.599,22.388,23.155  c7.352,5.827,12.53,9.384,16.296,11.195c0.611,0.294,1.107,0.54,1.52,0.744c1.474,0.73,1.512,0.73,1.879,0.73  c0.146,0,0.309-0.007,0.5-0.019c0.49-0.033,1.934-0.964,2.915-1.88c0.558-0.521,1.362-0.678,2.076-0.407  c0.713,0.271,1.209,0.924,1.28,1.684c0.064,0.691,1.57,17.063,1.192,28.613c-0.395,12.036-9.174,37.502-11.309,41.97  c-1.979,4.143-8.111,18.592-8.173,18.738c-0.417,0.981-1.53,1.464-2.531,1.096c-1.001-0.368-1.538-1.456-1.22-2.474  c0.104-0.332,10.376-33.274,11.479-43.012c1.161-10.258,0.363-16.489-0.554-21.991c-1.007-6.04-2.115-9.865-2.125-9.903  c-0.238-0.816,0.065-1.694,0.757-2.188c0.043-0.036,0.128-0.139,0.164-0.206c-0.018-0.013-0.058-0.083-0.146-0.187  c-0.759-0.868-6.663-5.269-11.407-8.804c-4.957-3.695-10.083-7.515-12.075-9.276c-1.657-1.464-4.556-4.412-7.625-7.533  c-4.354-4.428-9.773-9.939-11.52-11.018c-1.303-0.805-5.182-1.604-9.091-2.208c3.083,2.74,6.821,6.038,8.576,7.492  c2.662,2.206,5.085,2.285,5.188,2.287c1.003,0.023,1.857,0.786,1.966,1.783c0.03,0.279,3.042,28.081,2.758,45.622  c-0.271,16.797-1.575,26.99-5.366,41.948c-3.518,13.884-14.012,34.765-14.457,35.647  C131.709,223.008,131.007,223.415,130.272,223.415z M78.107,101.078c-0.623,6.072-2.814,28.651-2.574,43.577  c0.296,18.363,1.999,28.225,5.244,41.03c0.511,2.017,1.185,4.206,1.96,6.472c-0.489-2.041-0.908-3.944-1.222-5.61  c-2.247-11.919-4.085-24.79-1.922-51.023l2.139-25.948c-0.643-1.776-0.889-4.867,1.514-7.455c0.724-0.779,1.64-1.921,2.61-3.13  c2.356-2.937,5.026-6.265,7.682-8.06c3.502-2.367,6.153-4.165,6.154-4.166c0.601-0.408,1.373-0.457,2.02-0.133  c0.647,0.325,1.069,0.975,1.101,1.699c0.022,0.494,0.164,4.916-1.573,8.065c-1.072,1.944-2.282,3.382-3.026,4.177  c0.17,3.114,0.948,14.129,3.755,23.254c2.168,7.047,5.021,15.098,6.779,19.942c0.239-0.05,0.491-0.055,0.748-0.011l2.212,0.339  l0.66-0.067l1.553-0.272c0.255-0.044,0.508-0.039,0.748,0.011c1.758-4.844,4.611-12.895,6.779-19.942  c2.808-9.125,3.585-20.14,3.755-23.254c-0.745-0.795-1.954-2.233-3.026-4.177c-1.737-3.149-1.595-7.571-1.573-8.065  c0.032-0.724,0.454-1.374,1.101-1.699c0.647-0.324,1.42-0.274,2.02,0.133c0,0,2.651,1.799,6.154,4.166  c2.656,1.795,5.326,5.123,7.682,8.06c0.97,1.209,1.886,2.351,2.609,3.13c2.404,2.588,2.157,5.679,1.515,7.455l2.139,25.948  c2.163,26.233,0.325,39.104-1.922,51.023c-0.314,1.665-0.733,3.568-1.222,5.609c0.776-2.266,1.449-4.455,1.96-6.471  c3.245-12.806,4.947-22.668,5.244-41.03c0.241-14.926-1.951-37.504-2.574-43.577c-1.472-0.328-3.646-1.11-5.891-2.971  c-3.308-2.741-13.095-11.52-13.51-11.892c-0.645-0.578-0.844-1.505-0.494-2.297c0.35-0.792,1.172-1.27,2.031-1.181  c2.259,0.229,13.704,1.48,17.142,3.604c2.008,1.24,6.162,5.405,12.27,11.617c3.019,3.07,5.87,5.969,7.421,7.34  c1.868,1.65,6.926,5.42,11.817,9.065c7.525,5.609,11.169,8.367,12.065,9.421c1.067,1.256,1.175,2.465,1.077,3.259  c-0.097,0.779-0.413,1.416-0.758,1.9c0.416,1.598,1.194,4.84,1.93,9.259c1.176,7.053,1.684,13.378,0.583,23.098  c-0.167,1.478-0.525,3.43-1.016,5.688c2.421-8.189,4.619-17.176,4.796-22.587c0.268-8.157-0.456-19.099-0.885-24.618  c-0.757,0.394-1.572,0.689-2.355,0.733c-0.277,0.016-0.513,0.025-0.725,0.025c-1.341,0-2.066-0.359-3.654-1.146  c-0.402-0.199-0.884-0.438-1.479-0.724c-4.04-1.942-9.457-5.649-17.047-11.665c-7.711-6.111-19.627-19.822-22.388-23.039  c-1.424-0.069-4.398-0.219-7.373-0.402c-4.229-0.26-12.07-2.119-12.402-2.197c-0.771-0.184-1.361-0.806-1.504-1.586  c-0.143-0.78,0.189-1.571,0.845-2.016c0.286-0.194,7.056-4.766,10.907-5.914c3.738-1.116,9.146-0.345,19.226,2.785  c6.891,2.141,16.561,5.876,19.739,7.12l9.243-7.064c-0.263-3.6-1.46-16.278-6.047-32.229c-0.416-1.446-0.865-2.898-1.34-4.347  c1.186,4.652,2.105,8.946,2.41,11.995c0.57,5.701,1.309,24.705-1.145,27.158c-0.91,0.91-2.236,0.91-2.672,0.91  c-2.303,0-6.319-1.079-12.973-2.867c-1.552-0.417-3.23-0.868-5.035-1.345c-9.156-2.417-17.516-4.667-20.308-5.42  c-1.129,0.911-3.305,2.664-5.496,4.417c-3.577,2.862-6.237,3.019-6.529,3.027c-0.725,0.032-1.407-0.354-1.778-0.979  c-0.371-0.625-0.373-1.402-0.006-2.029l6.125-10.483c0.203-0.347,0.505-0.625,0.869-0.797c0.261-0.124,6.435-3.046,11.189-4.523  c3.447-1.071,6.411-1.208,8.607-1.208c0.637,0,1.249,0.012,1.839,0.024c0.522,0.01,1.027,0.021,1.514,0.021  c2.15,0,3.606,1.062,4.517,2.27l5.79-3.728c0.521-2.477,1.907-11.656-2.469-25.054c0.334,3.057,0.503,6.442,0.604,10.272  c0.262,9.953-2.335,13.069-2.858,13.593c-0.369,0.369-0.867,0.58-1.389,0.586c-0.049,0-4.972,0.074-11.708,0.931  c-5.512,0.702-14.168,4.632-16.801,5.874c-0.401,1.168-1.301,3.251-3.25,6.042c-2.013,2.882-3.6,4.659-4.588,5.139  c-0.6,0.292-1.308,0.264-1.884-0.075c-0.124-0.072-0.238-0.157-0.342-0.252c-0.611,0.694-1.513,1.096-2.499,1.096  c-0.787,0-1.47-0.27-2.025-0.619c-0.791,0.865-1.838,1.34-2.958,1.34c-0.21,0-0.403-0.017-0.573-0.042  c-0.17,0.025-0.363,0.042-0.573,0.042c-1.121,0-2.168-0.476-2.958-1.34c-0.555,0.349-1.239,0.619-2.026,0.619  c-0.986,0-1.887-0.402-2.499-1.096c-0.104,0.095-0.217,0.18-0.341,0.252c-0.577,0.338-1.284,0.366-1.885,0.075  c-0.989-0.479-2.576-2.256-4.589-5.139c-1.95-2.791-2.849-4.873-3.25-6.042c-2.634-1.242-11.29-5.172-16.801-5.874  c-6.737-0.857-11.66-0.931-11.708-0.931c-0.521-0.007-1.02-0.217-1.389-0.586c-0.523-0.523-3.121-3.64-2.858-13.593  c0.101-3.83,0.27-7.215,0.604-10.271c-4.374,13.39-2.992,22.567-2.469,25.054l5.789,3.727c0.91-1.208,2.367-2.27,4.517-2.27  c0.487,0,0.992-0.01,1.514-0.021c0.59-0.012,1.202-0.024,1.839-0.024c2.197,0,5.161,0.137,8.607,1.208  c4.754,1.478,10.929,4.4,11.189,4.524c0.364,0.172,0.667,0.45,0.869,0.797l6.126,10.483c0.366,0.627,0.364,1.404-0.007,2.029  c-0.371,0.625-1.057,1.008-1.778,0.979c-0.292-0.008-2.952-0.165-6.529-3.027c-2.191-1.753-4.367-3.506-5.496-4.417  c-2.793,0.753-11.152,3.003-20.308,5.42c-1.804,0.477-3.483,0.928-5.035,1.345c-6.654,1.788-10.67,2.867-12.973,2.867  c-0.436,0-1.763,0-2.672-0.91c-2.453-2.453-1.714-21.457-1.145-27.158c0.305-3.048,1.224-7.342,2.41-11.993  c-0.475,1.448-0.923,2.9-1.339,4.345c-4.595,15.979-5.786,28.633-6.047,32.229l9.243,7.064c3.178-1.244,12.848-4.979,19.739-7.12  c10.082-3.13,15.49-3.899,19.225-2.785c3.851,1.148,10.622,5.72,10.908,5.914c0.656,0.445,0.988,1.236,0.845,2.016  c-0.143,0.78-0.733,1.402-1.504,1.586c-0.332,0.079-8.174,1.937-12.402,2.197c-2.975,0.183-5.95,0.333-7.374,0.402  c-2.761,3.217-14.677,16.928-22.388,23.039c-7.59,6.016-13.007,9.723-17.047,11.666c-0.595,0.286-1.077,0.524-1.479,0.724  c-1.587,0.786-2.312,1.145-3.653,1.145c-0.212,0-0.448-0.009-0.725-0.025c-0.784-0.044-1.598-0.339-2.355-0.733  c-0.429,5.52-1.153,16.464-0.885,24.618c0.177,5.411,2.376,14.398,4.797,22.589c-0.49-2.26-0.848-4.211-1.016-5.69  c-1.101-9.721-0.593-16.045,0.583-23.098c0.736-4.419,1.515-7.661,1.93-9.259c-0.345-0.484-0.662-1.121-0.758-1.9  c-0.098-0.794,0.009-2.003,1.077-3.259c0.896-1.054,4.54-3.812,12.064-9.42c4.892-3.646,9.949-7.416,11.817-9.066  c1.551-1.371,4.4-4.269,7.418-7.337c6.109-6.214,10.265-10.379,12.273-11.62c3.438-2.124,14.882-3.375,17.142-3.604  c0.86-0.089,1.681,0.389,2.031,1.181c0.35,0.792,0.151,1.719-0.494,2.297c-0.415,0.372-10.202,9.151-13.51,11.892  C81.752,99.968,79.578,100.75,78.107,101.078z" transform="matrix(0.10585978355342004 0.02822927618235785 -0.02822927618235785 0.10585978355342004 104.322638541707 264.98741478983624)" id="L1_400"/><path d="M497,181h-54.787l-13.601-13.601l21.94-87.761c1.278-5.112-0.22-10.519-3.945-14.245   c-3.727-3.726-9.137-5.223-14.244-3.945l-58.469,14.617c-30.326,7.582-62.716-5.34-80.595-32.158L268.48,6.679   C265.699,2.507,261.016,0,256,0s-9.699,2.507-12.48,6.679l-24.818,37.228c-17.878,26.817-50.268,39.74-80.595,32.158L79.638,61.448   c-5.681-1.421-11.673,0.597-15.339,5.166c-3.665,4.57-4.335,10.855-1.715,16.094l19.751,39.501   c18.384,36.769,2.889,81.908-34.541,100.623L8.292,242.583C3.21,245.125,0,250.318,0,256s3.21,10.875,8.292,13.417l39.502,19.75   c37.43,18.715,52.925,63.854,34.541,100.623l-19.751,39.501c-2.62,5.24-1.95,11.525,1.715,16.094   c3.666,4.57,9.656,6.586,15.339,5.166l58.469-14.617c30.641-7.661,62.995,4.829,80.543,31.081l24.77,38.152   C246.186,509.429,250.92,512,256,512s9.814-2.571,12.581-6.832l24.77-38.152c17.547-26.251,49.898-38.741,80.543-31.081   l58.469,14.617c5.111,1.278,10.518-0.219,14.244-3.945c3.726-3.726,5.224-9.133,3.945-14.245l-21.94-87.761L442.213,331H497   c8.284,0,15-6.716,15-15V196C512,187.716,505.284,181,497,181z M415.385,415.385l-34.216-8.554   c-42.935-10.734-88.282,6.796-112.831,43.621C268.304,450.503,256,469.453,256,469.453c-16.473-25.372-11.286-17.447-12.338-19.001   c-24.55-36.826-69.896-54.357-112.831-43.621l-26.829,6.707l5.166-10.331c25.781-51.564,4.268-114.76-47.958-140.872L48.541,256   l12.669-6.334c52.226-26.113,73.739-89.308,47.957-140.873l-5.165-10.331l26.829,6.707c42.886,10.723,88.113-7.542,112.831-44.621   L256,42.042l12.338,18.506c20.107,30.162,53.557,47.661,88.127,47.659c8.226,0,16.518-0.991,24.704-3.038l34.216-8.554   l-11.511,46.045l-8.48-8.48c-8.499-8.5-19.8-13.18-31.82-13.18c-19.49,0-118.125,0-137.573,0c-24.813,0-45,20.187-45,45   c0,5.857,1.136,11.449,3.181,16.586C165.084,187.791,151,205.277,151,226c0,11.517,4.354,22.032,11.495,30   C155.354,263.968,151,274.483,151,286c0,20.723,14.084,38.209,33.181,43.414C182.136,334.551,181,340.143,181,346   c0,24.813,20.187,45,45,45c18.307,0,122.067,0,137.573,0c12.021,0,23.321-4.681,31.82-13.18l8.48-8.48L415.385,415.385z M256,361   h-30c-8.271,0-15-6.729-15-15s6.729-15,15-15h30c8.271,0,15,6.729,15,15S264.271,361,256,361z M181,226c0-8.271,6.729-15,15-15   c14.05,0,30.905,0,45,0v30c-14.095,0-30.95,0-45,0C187.729,241,181,234.271,181,226z M196,271h30c8.271,0,15,6.729,15,15   s-6.729,15-15,15h-30c-8.271,0-15-6.729-15-15S187.729,271,196,271z M241,166v15h-15c-8.271,0-15-6.729-15-15s6.729-15.01,15-15.01   h17.58C241.915,155.685,241,160.742,241,166z M482,301h-46c-3.979,0-7.794,1.58-10.606,4.393l-51.213,51.213   c-2.833,2.833-6.601,4.393-10.607,4.393H298.42c1.665-4.695,2.58-9.742,2.58-15c0-20.723-14.084-38.209-33.181-43.414   C269.864,297.449,271,291.857,271,286c0-5.625-1.047-11.008-2.94-15.977c19.521-3.169,36.54-13.892,47.94-29.071   C329.694,259.186,351.493,271,376,271c8.284,0,15-6.716,15-15s-6.716-15-15-15c-24.813,0-45-20.187-45-45c0-8.284-6.716-15-15-15   s-15,6.716-15,15c0,19.556-12.539,36.239-30,42.43V166c0-8.271,6.729-15,15-15h77.573c4.007,0,7.774,1.56,10.607,4.394   l51.213,51.213C428.206,209.42,432.021,211,436,211h46V301z" transform="matrix(0.060766991665573256 0.022097087987976754 -0.022097087987976754 0.060766991665573256 183.1005046585353 198.7867956086912)" id="L1_401"/><g transform="matrix(0.6767024397850037 0 0 0.6767024397850037 74.59331583976746 128.36057618260384)" id="L1_406"><path d="m6.24 51.71c1.06295621 1.8542094 2.70798417 3.3059114 4.68 4.13-3.47.59-6.92 1.56-6.92 4.16 0 .5522847.44771525 1 1 1h46c.5522847 0 1-.4477153 1-1 0-2.6-3.45-3.57-6.92-4.16 1.9720158-.8240886 3.6170438-2.2757906 4.68-4.13 7.24-4.38 5.24-13.83 5.24-13.93-.0843908-.3826763-.3845222-.6807951-.7677575-.7626094-.3832354-.0818143-.7789407.0677552-1.0122425.3826094 0 0-2.46 3.23-4.65 1.77l-.1-.06s-3.18-2.11-.47-12.87c3.77-15.18-3.13-26.17-20-25.24-16.89-.94-23.76 10.09-20 25.24 2.7 10.8-.48 12.87-.48 12.87l-.1.06c-2.15 1.45-4.52-1.64-4.62-1.77-.22991942-.3281336-.63349831-.4873549-1.02552532-.4045936-.39202702.0827612-.69680899.3915254-.77447468.7845936 0 .1-2 9.55 5.24 13.93zm8.14-36.49c-.1721716-.9386834.3428515-1.8682373 1.23-2.22l12.39-4.92 12.39 4.92c.8744335.3494121 1.3866837 1.2614673 1.23 2.19l-.3 1.8c-2.5691414-1.7812652-5.4865348-2.9979818-8.56-3.57-.326236-.0653244-.6635962.0358837-.9.27l-3.86 3.9-3.86-3.87c-.2364038-.2341163-.573764-.3353244-.9-.27-3.0718944.5659608-5.9891794 1.7758162-8.56 3.55zm2.08 10.78c.6420125-.2405 1.3158733-.3853801 2-.43-.6230788 1.0131331-.588786 2.2986927.0874197 3.2771669s1.8666131 1.4650641 3.0346035 1.2404219c1.1679905-.2246422 2.0929723-1.1180896 2.3579768-2.2775888.17.16.34.32.51.5.2500859.2572312.6184061.3615034.9662178.2735383.3478117-.0879652.6222742-.3548036.72-.7s.0038681-.7163071-.2462178-.9735383c-.8082864-.837156-1.7267083-1.5604553-2.73-2.15.0854626-.3995737.2872709-.7649163.58-1.05.3877236-.3900375.3877236-1.0199625 0-1.41-.1877666-.1893127-.4433625-.2957983-.71-.2957983s-.5222334.1064856-.71.2957983c-.4467336.4688982-.7877318 1.0281351-1 1.64-.4503626-.1400851-.9121258-.2404684-1.38-.3-.1738583-.3741214-.1738583-.8058786 0-1.18.1932607-.3211808.1906728-.7234705-.0067041-1.0421383-.1973768-.3186678-.5563928-.5001928-.9300368-.4702434s-.6991617.2663431-.8432591.6123817c-.3126449.6456156-.4241295 1.3702652-.32 2.08-.6238652.0579138-1.2403102.1785227-1.84.36-.5543597-1.5217234-.8910178-3.1141164-1-4.73 2.3677429-1.8590028 5.1329917-3.1458018 8.08-3.76l4.19 4.19c.1877666.1893127.4433625.2957983.71.2957983s.5222334-.1064856.71-.2957983l4.19-4.19c2.9628748.6085321 5.7431066 1.899354 8.12 3.77-.1036635 1.6133672-.4404945 3.2032095-1 4.72-.546966-.1743265-1.1096289-.2948972-1.68-.36.104933-.7129923-.0065426-1.4410675-.32-2.09-.2495756-.490313-.8483464-.6869243-1.34-.44-.4940809.2459531-.6954836.8456857-.45 1.34.1725002.3744204.1725002.8055796 0 1.18-.4686877.054727-.9308921.1552062-1.38.3-.2099679-.6129472-.5512508-1.1726512-1-1.64-.2443899-.2853762-.6281184-.4096819-.993419-.3218101-.3653005.0878718-.6505193.3730906-.7383911.7383911-.0878718.3653006.0364339.7490291.3218101.993419.2927291.2850837.4945374.6504263.58 1.05-1.0042832.5880916-1.9228937 1.3115395-2.73 2.15-.2839605.289594-.3648795.7220223-.2048476 1.0946993.1600319.3726769.5293155.6117829.9348476.6053007.53 0 .69-.3 1.23-.79.2461924.9637991.9541171 1.7428908 1.89 2.08 1.1822193.416256 2.4986185.0536913 3.3010001-.9091666s.9216192-2.3230573.2989999-3.4108334c.6370604.0458736 1.2655619.1735905 1.87.38-.38 2.55.41 3.52.39 5.13-.0642648 3.8023332-1.6404251 7.4224639-4.38 10.06-1.9 1.91-5 4.47-7.56 4.85-2.52-.37-5.61-2.89-7.56-4.85-2.7395749-2.6375361-4.3157352-6.2576668-4.38-10.06-.1-1.66.73-2.52.36-5.08zm4.2.14c.3803601-.1377491.8062459-.0327659 1.0790073.2659812.2727613.2987472.3386622.7324029.1669638 1.0986928-.1716983.3662898-.5471702.5930521-.9512803.5745157-.4041102-.0185363-.757246-.2787196-.8946908-.6591897-.0931808-.250538-.0821778-.5279532.0305529-.7703242.1127307-.2423711.3178045-.4295208.5694471-.5196758zm13.49.6c.1295238-.3850982.4791742-.6535481.8846596-.679212s.7861915.1965604.9632343.5622554c.1770428.3656951.1152247.8021573-.1564077 1.1043044-.2716325.3021471-.6990761.4099094-1.0814862.2726522-.517658-.1839144-.7900268-.7509772-.61-1.27zm-6.15 21.26c1.1587188-.1527479 2.278263-.5225367 3.3-1.09-.0973578.6258817-.1574636 1.2569925-.18 1.89-.0457226 2.2878566 1.0296915 4.453621 2.88 5.8v4.4h-12v-4.4c1.8503085-1.346379 2.9257226-3.5121434 2.88-5.8-.0225364-.6330075-.0826422-1.2641183-.18-1.89 1.0228766.5648585 2.1419173.934481 3.3 1.09zm10 11h-2v-3.32c.67.29 1.34.55 2 .77zm-18 0h-2v-2.55c.66-.22 1.33-.48 2-.77zm-4-2v2h-9.08c2.21-1.13 6.87-1.48 9.08-2zm24 2v-2c2.15.49 6.91.87 9.08 2zm-37.26-18.83c1.52 1.2 3.68 2.06 5.78.69.71-.4 4.44-3.14 1.45-15.1-1.82-7.29-1-13.53 2.36-17.58 3.18-3.84 8.44-5.59 15.61-5.18h.12c7.17-.41 12.43 1.34 15.61 5.18 3.33 4.05 4.18 10.29 2.33 17.58-3 12 .74 14.7 1.45 15.1 2.09 1.36 4.24.51 5.77-.68.12 2.68-.36 7.45-4.75 10-1.8729746 1.0080689-4.1270254 1.0080689-6 0-.3211808-.1932607-.7234705-.1906728-1.0421383.0067041-.3186678.1973768-.5001928.5563928-.4702434.9300368s.2663431.6991617.6123817.8432591c1.4301491.7601059 3.0439043 1.1064053 4.66 1-1.8160529 1.3072759-3.9924532 2.0199335-6.23 2.04-1.3751855-.3589793-2.7142218-.8443799-4-1.45-1.820767-.827533-2.9732338-2.6604665-2.93-4.66.0407097-1.1443546.2049973-2.2809562.49-3.39 4.93-3.57 8.26-8.29 8.33-14.37-.0144951-.768822-.1151234-1.5335966-.3-2.28-.41-2-.12-3 .53-5.19.5615874-1.4348668.8596953-2.9592824.88-4.5l.6-3.61c.3133674-1.8570654-.711133-3.6811759-2.46-4.38l-12.77-5.1c-.2375919-.09462433-.5024081-.09462433-.74 0l-12.76 5.1c-1.748867.6988241-2.7733674 2.5229346-2.46 4.38.81 4.85.55 3.31.61 3.64-.07 3.17 2 6.39 1.44 9.15-.233694.9026382-.367827 1.8281559-.4 2.76.07 6.08 3.4 10.8 8.33 14.37.2850027 1.1090438.4492903 2.2456454.49 3.39.0520541 1.9878254-1.0787656 3.8175545-2.88 4.66-1.2847283.6158939-2.6237924 1.1113476-4 1.48-2.2314651-.048669-4.3933928-.7856104-6.19-2.11 1.6160957.1064053 3.2298509-.2398941 4.66-1 .3460386-.1440974.5824323-.4696151.6123817-.8432591s-.1515756-.73266-.4702434-.9300368c-.3186678-.1973769-.7209575-.1999648-1.0421383-.0067041-1.8658377 1.0360011-4.13416229 1.0360011-6 0-4.51-2.51-4.97-7.27-4.83-9.94z" id="L1_403"/><path d="m28 13c.5522847 0 1-.4477153 1-1v-1c0-.5522847-.4477153-1-1-1s-1 .4477153-1 1v1c0 .5522847.4477153 1 1 1z" id="L1_404"/><path d="m28 35c1.0252362-.1040098 1.9828228-.5598352 2.71-1.29.3921222-.3893607.3943607-1.0228778.005-1.415s-1.0228778-.3943607-1.415-.005c-.3520436.3620528-.8051101.6094968-1.3.71-.4926299-.0987933-.9429747-.3466575-1.29-.71-.3921222-.3921221-1.0278778-.3921221-1.42 0-.3921221.3921222-.3921221 1.0278778 0 1.42.7271772.7301648 1.6847638 1.1859902 2.71 1.29z" id="L1_405"/><path d="m25 41.25c.6214643 1.0965866 1.7845557 1.774319 3.045 1.774319s2.4235357-.6777324 3.045-1.774319c.7563525-.8387321 1.601274-1.5931263 2.52-2.25.3746431-.2503149.5356172-.7202613.3931339-1.1477113s-.5532305-.7068226-1.0031339-.6822887c-.9389198.0602573-1.8792578-.0936162-2.75-.45-.6846728-.3810863-1.4862273-.4950852-2.25-.32-.7811376-.1771821-1.6001927-.0596655-2.3.33-2 .85-3.28-.1-3.67 1.13-.1432772.4200033.0073803.8841913.37 1.14.9466756.652229 1.8186034 1.4067819 2.6 2.25zm2.53-2.91c.3218469.1985304.7281531.1985304 1.05 0 .32-.19 1 .34 2 .58-.4496498.3824437-.8464593.8229695-1.18 1.31-.23801.5444907-.812705.8605729-1.4.77-.5694407.0494076-1.1075356-.2678275-1.34-.79-.3335407-.4870305-.7303502-.9275563-1.18-1.31.99-.22 1.69-.76 2.01-.56z" id="Shape"/></g><g transform="matrix(0.04707014560699463 0 0 0.04707014560699463 -8.409022731834057 117.95004272460938)" id="L1_407"><path d="m437.941406 116.851562c-.964844-7.273437-6.988281-12.734374-14.320312-13.003906-72.875-2.625-146.433594-52.992187-190.976563-99.257812-5.945312-6.152344-15.691406-6.074219-21.515625-.039063-58.199218 59.992188-129.585937 97.113281-190.976562 99.304688-7.339844.261719-13.363282 5.722656-14.332032 13.003906-34.746093 261.652344 92.1875 394.636719 217.742188 395.140625h.703125c120.828125 0 249.570313-125.605469 213.675781-395.148438zm-30.945312 229.433594c-92.09375 261.851563-440.285156 180.289063-386.230469-227.363281 74.476563-2.683594 149.179687-50.285156 201.097656-103.769531 26.933594 27.949218 58.359375 52.226562 90.894531 70.21875 37.957032 20.980468 75.046876 32.273437 110.25 33.550781 11.644532 87.578125 6.253907 164.074219-16.011718 227.363281zm0 0"/><path d="m395.8125 136.351562c-55.605469-9.082031-114.53125-39.453124-165.925781-85.527343-4.617188-4.132813-11.574219-4.164063-16.191407-.050781-37.070312 33.027343-95.90625 74.707031-165.652343 85.679687-5.523438.863281-9.734375 5.339844-10.25 10.878906-1.941407 20.871094-2.734375 40.753907-2.503907 59.652344.050782 4.132813 3.410157 7.453125 7.542969 7.453125 4.175781 0 7.535157-3.382812 7.535157-7.535156v-.089844c-.214844-17.699219.5-36.308594 2.242187-55.816406 71.144531-11.859375 130.863281-53.476563 169.152344-87.207032 52.378906 46.402344 112.359375 77.238282 169.425781 87.074219 35.160156 384.179688-309.59375 401.847657-339.816406 88.714844-.371094-3.859375-3.621094-6.816406-7.492188-6.816406h-.011718c-4.445313 0-7.945313 3.832031-7.511719 8.246093 32.101562 332.742188 408.386719 313.664063 369.632812-93.804687-.519531-5.5-4.703125-9.957031-10.175781-10.851563zm0 0"/><path d="m273.113281 125.210938c5.324219-20.054688-21.742187-32.125-33.066406-14.625 0 0-31.21875 48.796874-31.460937 49.167968h-38.730469c-7.484375 0-14.441407 4.023438-18.183594 10.5l-52.15625 90.335938c-3.742187 6.476562-3.742187 14.519531 0 21l52.15625 90.332031c2.484375 4.304687 6.386719 7.523437 10.921875 9.203125l-15.277344 32.011719c-9.753906 18.625 14.65625 36.328125 29.347656 21.230469.210938-.210938.402344-.441407.582032-.671876l39.234375-51.273437h57.6875c7.484375 0 14.445312-4.023437 18.183593-10.5l52.160157-90.332031c3.738281-6.480469 3.738281-14.523438 0-21l-22.550781-39.164063c-2.089844-3.601562-6.699219-4.835937-10.308594-2.753906-2.421875 1.394531-3.769532 3.929687-3.769532 6.546875 0 1.277344.320313 2.574219 1.003907 3.761719l22.558593 39.160156c1.046876 1.820313 1.046876 4.074219 0 5.90625l-52.15625 90.332031c-1.054687 1.820313-3.015624 2.957032-5.121093 2.957032h-46.140625l22.648437-29.199219c2.300781-3.003907 2.019531-7.246094-.65625-9.917969l-.007812-.007812c-3.226563-3.226563-8.554688-2.875-11.324219.75-28.308594 37.003906-60.148438 78.222656-73.085938 95.128906-1.527343 1.359375-2.988281.824218-3.960937.109375-1.773437-1.304688-1.640625-2.703125-.777344-4.421875 40.722657-85.308594-1.628906 3.398437 52.480469-109.957032 5.167969-10.820312-2.695312-23.421874-14.785156-23.421874h-50.726563c-.503906 0-.886719-.234376-1.128906-.675782s-.230469-.886718.039063-1.308594c124.199218-194.113281 41.757812-65.28125 105.984374-165.652343 1.238282-1.890625 2.855469-1.679688 4.003907-1.167969 1.105469.496094 2.3125 1.519531 1.839843 3.570312-30.320312 85.621094 1.386719-3.910156-37.914062 107.019532-3.773438 10.640625 4.132812 21.835937 15.425781 21.835937h60.113281c.191407 0 .792969 0 1.15625.722657.351563.714843-.019531 1.1875-.140624 1.347656-8.804688 11.511718-24.003907 31.367187-41.171876 53.816406-2.296874 3.003906-2.019531 7.246094.65625 9.921875 3.222657 3.226563 8.550782 2.871094 11.324219-.75l41.179688-53.816406c8.226562-10.769531.554687-26.328125-13.003907-26.328125h-60.113281c-.441406 0-.792969-.179688-1.046875-.542969-.261718-.363281-.308594-.753906-.160156-1.167969l20.679688-58.382812h18.613281c2.105469 0 4.066406 1.136718 5.121093 2.957031l14.101563 24.421875c2.082031 3.609375 6.695313 4.847656 10.308594 2.765625 2.414062-1.398437 3.769531-3.933594 3.769531-6.539063 0-1.277343-.332031-2.574218-1.015625-3.761718l-14.101563-24.429688c-3.738281-6.476562-10.699218-10.5-18.183593-10.5h-13.265625l12-33.871094c.058594-.183593.152344-.488281.210937-.671874zm-139.070312 151.066406c-6.980469 10.921875.902343 25.203125 13.789062 25.203125h50.726563c.472656 0 .84375.203125 1.097656.605469.25.390624.269531.8125.070312 1.234374l-30.535156 63.976563c-1.851562-.210937-3.507812-1.289063-4.453125-2.917969l-52.160156-90.34375c-1.042969-1.820312-1.042969-4.074218 0-5.902344l52.160156-90.335937c1.054688-1.820313 3.015625-2.957031 5.117188-2.957031h29.085937zm0 0"/></g><g transform="matrix(0.0415240079164505 0 0 0.0415240079164505 71.36985397338867 30.369853973388672)" id="L1_408"><path d="M256,0C114.844,0,0,114.844,0,256s114.844,256,256,256s256-114.844,256-256S397.156,0,256,0z M256,490.667     C126.604,490.667,21.333,385.396,21.333,256S126.604,21.333,256,21.333S490.667,126.604,490.667,256S385.396,490.667,256,490.667     z"/><path d="M248.458,203.208c2.083,2.083,4.813,3.125,7.542,3.125s5.458-1.042,7.542-3.125l94.323-94.323     c2.313-2.313,3.438-5.552,3.052-8.802s-2.24-6.135-5.031-7.844c-60.458-36.938-139.313-36.938-199.771,0     c-2.792,1.708-4.646,4.594-5.031,7.844c-0.385,3.25,0.74,6.49,3.052,8.802L248.458,203.208z M332.802,103.771L256,180.583     l-76.802-76.813C226.906,79.583,285.094,79.583,332.802,103.771z"/><path d="M419.76,156.115c-1.708-2.792-4.594-4.646-7.844-5.031c-3.26-0.385-6.49,0.74-8.802,3.052l-94.323,94.323     c-4.167,4.167-4.167,10.917,0,15.083l94.323,94.323c2.01,2.01,4.729,3.125,7.542,3.125c0.417,0,0.844-0.021,1.26-0.073     c3.25-0.385,6.135-2.24,7.844-5.031C438.229,325.656,448,291.115,448,256S438.229,186.344,419.76,156.115z M408.229,332.802     L331.417,256l76.813-76.802c12.094,23.854,18.438,50.146,18.438,76.802S420.323,308.948,408.229,332.802z"/><path d="M203.208,248.458l-94.323-94.323c-2.302-2.302-5.604-3.417-8.802-3.052c-3.25,0.385-6.135,2.24-7.844,5.031     C73.771,186.344,64,220.885,64,256s9.771,69.656,28.24,99.885c1.708,2.792,4.594,4.646,7.844,5.031     c0.417,0.052,0.844,0.073,1.26,0.073c2.813,0,5.531-1.115,7.542-3.125l94.323-94.323     C207.375,259.375,207.375,252.625,203.208,248.458z M103.771,332.802C91.677,308.948,85.333,282.656,85.333,256     s6.344-52.948,18.438-76.802L180.583,256L103.771,332.802z"/><path d="M263.542,308.792c-4.167-4.167-10.917-4.167-15.083,0l-94.323,94.323c-2.313,2.313-3.438,5.552-3.052,8.802     c0.385,3.25,2.24,6.135,5.031,7.844C186.344,438.229,220.885,448,256,448s69.656-9.771,99.885-28.24     c2.792-1.708,4.646-4.594,5.031-7.844s-0.74-6.49-3.052-8.802L263.542,308.792z M179.198,408.229L256,331.417l76.802,76.813     C285.094,432.417,226.906,432.417,179.198,408.229z"/></g><path d="M94.294,188.589C42.3,188.589,0,146.289,0,94.295C0,42.3,42.3,0,94.294,0s94.295,42.3,94.295,94.295  C188.589,146.289,146.288,188.589,94.294,188.589z M94.294,4C44.506,4,4,44.506,4,94.295s40.506,90.294,90.294,90.294  c49.789,0,90.295-40.506,90.295-90.294S144.083,4,94.294,4z M144.175,160.465H44.414c-1.104,0-2-0.896-2-2v-22.151  c0-1.104,0.896-2,2-2h19.4c-12.377-9.446-19.837-24.242-19.837-40.019c0-15.778,7.46-30.573,19.837-40.02h-19.4  c-1.104,0-2-0.896-2-2V30.125c0-1.104,0.896-2,2-2h99.761c1.104,0,2,0.896,2,2v22.151c0,1.104-0.896,2-2,2h-19.4  c12.377,9.446,19.837,24.242,19.837,40.02c0,15.777-7.46,30.573-19.837,40.019h19.4c1.104,0,2,0.896,2,2v22.151  C146.175,159.569,145.28,160.465,144.175,160.465z M46.414,156.465h95.761v-18.151h-24.04c-0.907,0-1.701-0.611-1.934-1.489  s0.156-1.801,0.945-2.25c14.474-8.23,23.465-23.665,23.465-40.28s-8.991-32.051-23.465-40.281c-0.789-0.449-1.178-1.373-0.945-2.25  s1.026-1.489,1.934-1.489h24.04V32.125H46.414v18.151h24.04c0.907,0,1.701,0.611,1.934,1.489s-0.156,1.801-0.945,2.25  c-14.474,8.229-23.465,23.665-23.465,40.281c0,16.555,8.926,31.938,23.307,40.19c0.701,0.311,1.189,1.013,1.189,1.829  c0,1.104-0.895,2-2,2c-0.005,0-0.013,0.001-0.02,0h-24.04V156.465z M94.294,126.889c-17.973,0-32.594-14.622-32.594-32.594  S76.322,61.7,94.294,61.7s32.595,14.622,32.595,32.595S112.267,126.889,94.294,126.889z M94.294,65.7  C78.528,65.7,65.7,78.528,65.7,94.295s12.827,28.594,28.594,28.594c15.768,0,28.595-12.827,28.595-28.594S110.062,65.7,94.294,65.7z  " transform="matrix(0.09779136174899997 -0.1354034181871009 0.1354034181871009 0.09779136174899997 174.98599367453573 142.44183629371068)" id="L1_409"/><path d="M362.667,68.188V10.667C362.667,4.771,357.896,0,352,0h-64c-4.104,0-7.854,2.354-9.625,6.063l-17.479,36.552    c-0.406,0-0.823,0.01-1.219,0.01L256,42.667c-129.396,0-234.667,105.271-234.667,234.667c0,40.083,10.417,79.792,30.115,114.833    c1.948,3.458,5.74,5.531,9.656,5.427c3.979-0.125,7.552-2.458,9.271-6.052l24.042-50.271c1.208-2.531,1.375-5.448,0.458-8.094    c-6.333-18.271-9.542-37.063-9.542-55.844c0-84.802,61.906-155.656,144-168.708L43.708,496.729    c-1.583,3.302-1.354,7.188,0.604,10.292c1.948,3.104,5.354,4.979,9.021,4.979h64c4.271,0,8.125-2.542,9.802-6.469l61.229-142.865    H288v10.667c0,4.104,2.354,7.833,6.042,9.615c3.708,1.792,8.083,1.271,11.292-1.281L358.667,339c2.531-2.031,4-5.094,4-8.333    c0-3.24-1.469-6.302-4-8.333l-53.333-42.667c-3.219-2.573-7.625-3.083-11.292-1.281c-3.688,1.781-6.042,5.51-6.042,9.615v10.667    h-68.833L288,145.698v99.635c0,3.24,1.469,6.302,4,8.333l53.333,42.667c3.188,2.563,7.594,3.052,11.292,1.281    c3.688-1.781,6.042-5.51,6.042-9.615V144.417c40.406,32.417,64,80.802,64,132.917c0,53.753-25.039,101.707-64,133.014v-37.014    c0-4.104-2.354-7.833-6.042-9.615c-3.708-1.781-8.094-1.281-11.292,1.281L292,407.667c-3.531,2.833-4.896,7.594-3.396,11.865    c1.5,4.271,5.531,7.135,10.063,7.135h39.773C313.98,440.225,285.892,448,256,448c-22.042,0-43.646-4.24-64.208-12.604    c-5.375-2.146-11.531,0.344-13.823,5.688l-16.813,39.24c-1.125,2.625-1.156,5.594-0.073,8.229c1.083,2.646,3.177,4.75,5.823,5.833    C195.333,506.073,225.312,512,256,512c129.396,0,234.667-105.271,234.667-234.667C490.667,189.708,440.646,108.354,362.667,68.188    z M329.073,405.333l12.26-9.802v9.802H329.073z M256,490.667c-24.271,0-48.063-4.083-70.865-12.146l8.427-19.677    c20.156,6.969,41.104,10.49,62.438,10.49c105.865,0,192-86.135,192-192c0-66.167-33.76-126.958-90.313-162.625    c-3.26-2.073-7.427-2.208-10.844-0.323c-3.396,1.875-5.51,5.458-5.51,9.344v142.073l-32-25.594V96    c0-5.031-3.51-9.375-8.427-10.427c-4.896-1.063-9.906,1.469-11.969,6.052l-96,213.333c-1.479,3.302-1.198,7.125,0.771,10.167    s5.344,4.875,8.958,4.875h96c5.615,0,10.208-4.333,10.635-9.833l25.625,20.5l-25.625,20.5c-0.427-5.5-5.021-9.833-10.635-9.833    H181.333c-4.271,0-8.125,2.542-9.802,6.469l-61.229,142.865H70.26l186.531-390.01c1.625-3.396,1.333-7.385-0.75-10.521    c-2.083-3.135-5.76-5.01-9.417-4.74C144.219,90.635,64,174.938,64,277.333c0,19.729,3.125,39.427,9.313,58.625l-12.76,26.677    c-11.75-26.854-17.885-55.969-17.885-85.302C42.667,159.698,138.365,64,256,64l4-0.042c2.417-0.042,4.896-0.094,7.104,0.021    c4.344,0.375,8.26-2.177,10.115-6.052l17.5-36.594h46.615v53.458c0,4.104,2.354,7.844,6.063,9.625    c74.073,35.479,121.938,111.208,121.938,192.917C469.333,394.969,373.635,490.667,256,490.667z" transform="matrix(0.1171875 0 0 0.1171875 144 -19)" id="L1_410"/><g transform="matrix(0.38569461002036326 -0.25712973773127984 0.25712973773127984 0.38569461002036326 233.85786458788243 72.17157304805875)" id="L1_411"><path d="M22,0C9.869,0,0,9.869,0,22s9.869,22,22,22s22-9.869,22-22S34.131,0,22,0z M8.841,26h27.307   C36.056,26.288,36,26.591,36,26.905V27.5C36,33.841,29.944,39,22.5,39S9,33.841,9,27.5v-0.548C9,26.62,8.94,26.302,8.841,26z    M38.407,23.917c-0.108,0.026-0.207,0.067-0.31,0.103C38.064,24.016,38.035,24,38,24H7c-0.063,0-0.118,0.025-0.178,0.036   c-0.114-0.034-0.226-0.072-0.345-0.093c-2.997-0.524-4.203-3.218-3.48-7.852c0.023-0.225,0.648-5.17,9.876-5.17   c0.644,0,1.329,0.024,2.058,0.075c0.035,0.003,0.071,0.004,0.109,0.002c0.014,0.003,1.306-0.04,2.688,0.46   c2.756,0.998,5.791,0.998,8.545,0c1.382-0.5,2.675-0.458,2.747-0.459c11.374-0.239,11.963,4.863,11.992,5.154   C41.502,19.288,41.447,23.179,38.407,23.917z M22,2c6.752,0,12.721,3.372,16.345,8.511c-2.059-0.939-5.022-1.596-9.303-1.51   c-0.07-0.009-1.683-0.063-3.45,0.577c-2.316,0.84-4.867,0.84-7.184,0h-0.001c-1.594-0.576-3.063-0.58-3.386-0.579   c-4.113-0.282-7.02,0.25-9.075,1.123C9.594,5.206,15.422,2,22,2z M22,42C11.43,42,2.772,33.752,2.069,23.358   c1.212,1.782,2.998,2.37,4.063,2.557C6.635,26.002,7,26.438,7,26.952V27.5C7,34.944,13.953,41,22.5,41S38,34.944,38,27.5v-0.595   c0-0.489,0.361-0.919,0.88-1.045c0.937-0.228,2.125-0.773,3.026-2.009C40.968,34.014,32.404,42,22,42z"/><path d="M17,34h10c0.553,0,1-0.447,1-1s-0.447-1-1-1H17c-0.553,0-1,0.447-1,1S16.447,34,17,34z"/><path d="M35,15H9c-1.654,0-3,1.346-3,3s1.346,3,3,3h26c1.654,0,3-1.346,3-3S36.654,15,35,15z M35,19H9c-0.552,0-1-0.448-1-1   s0.448-1,1-1h26c0.552,0,1,0.448,1,1S35.552,19,35,19z"/></g><g transform="matrix(-0.18366412447435465 0.2984541608172811 -0.2984541608172811 -0.18366412447435465 23.60660251483451 298.4746194388742)" id="L1_412"><path d="M44,22c0-8.725-5.106-16.28-12.487-19.835c-0.004-0.002-0.006-0.007-0.01-0.009c-0.012-0.007-0.027-0.007-0.039-0.013   C28.595,0.77,25.386,0,22,0c-3.298,0-6.47,0.712-9.429,2.117C4.935,5.746,0,13.55,0,22c0,12.131,9.869,22,22,22   c5.838,0,11.148-2.29,15.091-6.014c0.377-0.035,0.719-0.275,0.852-0.656c0.026-0.075,0.023-0.151,0.031-0.227   C41.705,33.159,44,27.844,44,22z M42,22c0,5.308-2.093,10.127-5.479,13.711c-1.955-0.908-6.958-3.721-9.091-9.508   c-2.181-5.922-0.839-13.271,3.967-21.847C37.7,7.726,42,14.368,42,22z M2,22C2,14.63,6.136,7.81,12.602,4.354   c4.924,8.772,6.339,16.257,4.185,22.249c-2.325,6.467-8.192,9.074-9.028,9.416C4.202,32.408,2,27.458,2,22z M9.366,37.488   c2.139-1.041,7.064-4.016,9.292-10.177c2.365-6.54,0.928-14.551-4.249-23.82C16.815,2.502,19.363,2,22,2   c2.684,0,5.243,0.54,7.584,1.503c-5.055,9.072-6.415,16.949-4.02,23.419c2.186,5.904,6.88,8.98,9.411,10.268   C31.479,40.181,26.952,42,22,42C17.211,42,12.813,40.305,9.366,37.488z"/><path d="M11.467,26.627c1.445,0,2.754-0.524,3.593-1.579v-0.001c1.717-2.157,0.831-5.728-1.973-7.959   c-1.314-1.046-2.859-1.657-4.353-1.722c-1.604-0.075-2.978,0.493-3.847,1.586c-0.87,1.093-1.112,2.551-0.683,4.105   c0.398,1.44,1.341,2.81,2.654,3.854C8.293,26.053,9.955,26.627,11.467,26.627z M6.452,18.197c0.433-0.543,1.146-0.837,2.021-0.837   c0.058,0,0.116,0.001,0.175,0.004c1.074,0.047,2.208,0.504,3.193,1.288c1.909,1.519,2.666,3.877,1.654,5.149   c-1.012,1.274-3.482,1.063-5.39-0.454c-0.986-0.784-1.687-1.787-1.973-2.823C5.878,19.604,5.991,18.777,6.452,18.197z"/><path d="M30.859,17.088c-1.313,1.045-2.256,2.414-2.654,3.854c-0.43,1.554-0.188,3.012,0.683,4.104   c0.821,1.033,2.085,1.593,3.581,1.593c0.088,0,0.177-0.002,0.266-0.006c1.493-0.064,3.038-0.676,4.353-1.722   c2.804-2.231,3.689-5.802,1.973-7.96C37.341,14.794,33.663,14.856,30.859,17.088z M37.495,18.197   c1.012,1.273,0.255,3.631-1.654,5.15c-0.985,0.784-2.119,1.241-3.193,1.288c-0.948,0.051-1.734-0.254-2.195-0.833v-0.001   c-0.461-0.579-0.574-1.405-0.319-2.326c0.286-1.036,0.986-2.039,1.973-2.823c1.067-0.85,2.31-1.289,3.374-1.289   C36.319,17.363,37.048,17.637,37.495,18.197z"/></g><path d="M98,196c-54.038,0-98-43.962-98-98S43.963,0,98,0s98,43.962,98,98S152.038,196,98,196z M98,4C46.169,4,4,46.168,4,98  s42.168,94,94,94s94-42.168,94-94S149.832,4,98,4z M98,174.797c-42.346,0-76.797-34.451-76.797-76.797  c0-42.346,34.451-76.797,76.797-76.797S174.798,55.654,174.798,98C174.798,140.346,140.346,174.797,98,174.797z M98,25.203  C57.86,25.203,25.203,57.859,25.203,98c0,40.14,32.657,72.797,72.797,72.797c40.14,0,72.797-32.657,72.797-72.797  C170.798,57.859,138.14,25.203,98,25.203z M98,151.809c-29.67,0-53.809-24.139-53.809-53.809S68.33,44.191,98,44.191  S151.809,68.33,151.809,98S127.671,151.809,98,151.809z M98,48.191c-27.465,0-49.809,22.344-49.809,49.809  S70.535,147.809,98,147.809c27.464,0,49.809-22.344,49.809-49.809S125.465,48.191,98,48.191z M116.962,124.352  c-0.318,0-0.638-0.076-0.931-0.229L98,114.643l-18.031,9.479c-0.673,0.354-1.49,0.295-2.106-0.152  c-0.616-0.448-0.924-1.206-0.795-1.956l3.443-20.078L65.924,87.717c-0.545-0.531-0.741-1.326-0.506-2.05  c0.235-0.724,0.861-1.251,1.614-1.361l20.159-2.929l9.016-18.268c0.337-0.683,1.032-1.115,1.793-1.115s1.457,0.432,1.793,1.115  l9.016,18.268l20.158,2.929c0.754,0.109,1.38,0.637,1.615,1.361s0.039,1.519-0.506,2.05l-14.587,14.219l3.443,20.078  c0.128,0.75-0.181,1.508-0.796,1.956C117.789,124.223,117.376,124.352,116.962,124.352z M71.618,87.682l12.438,12.125  c0.471,0.459,0.687,1.122,0.575,1.77l-2.936,17.12l15.375-8.083c0.583-0.306,1.278-0.306,1.861,0l15.375,8.083l-2.937-17.12  c-0.11-0.648,0.104-1.311,0.575-1.77l12.438-12.125l-17.188-2.498c-0.652-0.094-1.215-0.503-1.507-1.094L98,68.514L90.313,84.09  c-0.292,0.59-0.854,1-1.506,1.094L71.618,87.682z" transform="matrix(0.1515228794501118 -0.057723001136990075 0.057723001136990075 0.1515228794501118 269.49390400048725 185.8076122233373)" id="L1_413"/><path d="M112.224,205.643H93.419c-0.124,0-12.431-0.031-16.769-2.718c-3.134-1.939-6.335-7.061-6.689-7.639l-18.395-28.99  c-0.178-0.28-0.283-0.6-0.307-0.931c-0.015-0.209-1.486-21.061-2.281-31.01c-0.772-9.655-4.125-17.995-4.158-18.078  c-0.131-0.32-0.176-0.669-0.131-1.012l0.294-2.248c-1.486-2.096-4.787-8.389-6.213-24.179c-1.486-16.464,3.786-22.957,6.063-24.956  l0.779-29.894c-0.026-1.278,0.147-14.447,17.797-24.571c17.273-9.908,37.77-9.453,39.412-9.401  c1.645-0.052,22.141-0.507,39.413,9.401c17.651,10.125,17.823,23.297,17.797,24.572l0.779,29.893  c2.276,1.999,7.549,8.492,6.063,24.956c-1.427,15.791-4.728,22.083-6.213,24.179l0.293,2.249c0.044,0.342-0.001,0.69-0.13,1.01  c-0.034,0.083-3.388,8.453-4.158,18.079c-0.796,9.949-2.268,30.801-2.282,31.01c-0.023,0.331-0.129,0.651-0.307,0.931  l-18.409,29.015c-0.339,0.553-3.54,5.674-6.674,7.614C124.655,205.612,112.348,205.643,112.224,205.643z M55.214,164.58  l18.14,28.588c0.844,1.371,3.426,5.132,5.402,6.355c2.046,1.268,9.233,2.119,14.663,2.119h18.806c5.43,0,12.617-0.851,14.663-2.118  c1.974-1.222,4.616-5.077,5.387-6.331l18.154-28.613c0.225-3.179,1.459-20.571,2.195-29.867c-0.911,1.771-1.798,3.372-2.583,4.594  c-1.113,1.731-2.229,3.281-3.316,4.768c-0.643,0.937-1.323,1.868-2.037,2.794c-1.808,2.522-3.549,5.164-5.273,8.746  c-2.845,5.91-4.522,11.053-4.987,12.549l1.52,8.391c0.066,0.368,0.029,0.747-0.108,1.094c-0.724,1.824-4.462,11.035-6.977,13.254  c-2.4,2.119-7.537,0.479-10.979-1.007l-1.511,4.809c-0.262,0.833-1.034,1.4-1.908,1.4H91.179c-0.874,0-1.646-0.567-1.908-1.401  l-1.51-4.809c-3.443,1.486-8.577,3.125-10.979,1.008c-2.515-2.219-6.253-11.431-6.977-13.254c-0.138-0.348-0.175-0.727-0.108-1.094  l1.519-8.391c-0.464-1.496-2.142-6.639-4.986-12.549c-1.061-2.203-2.128-4.051-3.213-5.734c-1.713-2.081-3.287-4.244-4.593-6.485  c-0.93-1.281-1.876-2.62-2.821-4.089c-0.785-1.222-1.672-2.824-2.583-4.594C53.755,144.009,54.989,161.401,55.214,164.58z   M102.821,192.106h10.174l0.938-2.985H91.711l0.937,2.985H102.821z M73.735,176.703c1.905,4.715,4.549,10.192,5.693,11.202  c0.784,0.375,4.184-0.539,7.407-1.979c-0.127-0.682-0.359-1.684-0.787-3.038c-0.216-0.683-0.412-1.462-0.64-2.365  c-0.234-0.931-0.5-1.982-0.838-3.115l-3.244,3.32c-0.436,0.445-1.048,0.664-1.673,0.587c-0.619-0.076-1.167-0.435-1.482-0.973  l-3.895-6.632L73.735,176.703z M118.808,185.925c3.227,1.438,6.638,2.351,7.461,1.94c1.093-0.972,3.734-6.448,5.639-11.162  l-0.542-2.992l-3.895,6.632c-0.315,0.538-0.863,0.897-1.482,0.973c-0.624,0.075-1.237-0.143-1.673-0.587l-3.244-3.319  c-0.338,1.132-0.604,2.184-0.838,3.114c-0.228,0.902-0.424,1.682-0.64,2.364C119.168,184.238,118.935,185.239,118.808,185.925z   M90.756,185.121h24.132c0.162-0.854,0.435-1.988,0.893-3.438c0.18-0.57,0.363-1.297,0.575-2.138  c0.277-1.098,0.607-2.408,1.062-3.856h-29.19c0.454,1.448,0.784,2.758,1.062,3.856c0.212,0.841,0.396,1.568,0.575,2.139  C90.321,183.133,90.593,184.267,90.756,185.121z M122.59,173.239l2.758,2.822l5.178-8.817c0.256-0.849,1.16-3.737,2.732-7.601  c-0.029,0.03-0.058,0.06-0.087,0.09c-2.194,2.285-4.267,4.443-6.111,6.511C125.009,168.543,123.601,170.951,122.59,173.239z   M75.117,167.244l5.179,8.817l2.758-2.822c-1.013-2.288-2.419-4.695-4.47-6.995c-1.777-1.992-3.855-4.062-6.057-6.25  C74.011,163.68,74.869,166.421,75.117,167.244z M102.821,171.688h16.085c1.154-2.622,2.78-5.43,5.169-8.107  c1.893-2.123,3.99-4.307,6.211-6.619c3.915-4.077,7.94-8.269,11.2-12.492c0.503-0.702,1.004-1.384,1.502-2.063  c0.156-0.213,0.313-0.427,0.471-0.642c2.841-4.172,2.993-8.863,3.154-13.83c0.078-2.408,0.159-4.898,0.553-7.394  c0.164-1.04,0.203-2.239,0.152-3.528c-3.118,4.845-10.283,7.688-13.934,8.562c-4.127,0.986-12.816,2.554-13.185,2.62  c-0.654,0.12-1.324-0.097-1.788-0.574c-0.583-0.599-3.525-3.72-4.253-6.317l-0.055-0.195c-2.136,0.602-5.838,1.326-11.283,1.326  c-5.444,0-9.147-0.725-11.282-1.326l-0.055,0.195c-0.728,2.597-3.67,5.718-4.253,6.317c-0.464,0.477-1.136,0.692-1.788,0.574  c-0.368-0.066-9.058-1.633-13.186-2.62c-3.65-0.873-10.814-3.717-13.932-8.562c-0.052,1.29-0.013,2.489,0.151,3.528  c0.412,2.61,0.489,5.099,0.563,7.506c0.142,4.551,0.275,8.851,2.741,13.167c0.293,0.402,0.584,0.799,0.873,1.193  c1.192,1.625,2.405,3.278,3.617,5.146c2.735,3.297,5.891,6.435,8.981,9.509c2.279,2.267,4.433,4.409,6.314,6.518  c2.389,2.678,4.015,5.486,5.169,8.108H102.821z M49.715,117.976c0.752,1.769,3.034,7.079,5.388,11.947  c-0.022-0.586-0.041-1.171-0.06-1.752c-0.07-2.284-0.144-4.645-0.517-7.007c-1.164-7.375,2.798-20.599,3.49-22.827V79.839  c0-8.414-1.455-17.089-3.03-24.016v40.896c0,0.164-0.021,0.328-0.061,0.487L49.715,117.976z M147.627,98.337  c0.692,2.228,4.653,15.452,3.49,22.827c-0.354,2.25-0.432,4.614-0.506,6.9c-0.02,0.614-0.04,1.23-0.065,1.848  c2.353-4.866,4.632-10.168,5.383-11.936l-5.211-20.771c-0.04-0.159-0.061-0.323-0.061-0.487V55.831  c-1.575,6.929-3.03,15.604-3.03,24.007V98.337z M60.803,105.783c-0.398,2.404-0.62,5.808,0.411,8.184  c1.712,3.945,8.252,6.827,11.973,7.717c3.179,0.76,9.385,1.918,11.884,2.376c1.068-1.221,2.289-2.863,2.562-3.836l0.2-0.715  c-2.838-1.565-9.474-5.2-14.413-7.708C69.037,109.576,63.742,107.124,60.803,105.783z M117.81,119.509l0.2,0.715  c0.272,0.973,1.493,2.615,2.562,3.836c2.5-0.458,8.706-1.617,11.883-2.376c3.721-0.89,10.262-3.771,11.974-7.717  c1.036-2.388,0.814-5.788,0.414-8.186c-2.938,1.34-8.236,3.794-12.619,6.019C127.283,114.309,120.648,117.943,117.81,119.509z   M91.09,116.739c0.398,0.174,4.103,1.695,11.731,1.695s11.334-1.521,11.732-1.695c0.866-0.481,9.667-5.361,15.859-8.505  c5.152-2.616,11.537-5.536,13.999-6.651c-0.399-1.413-0.679-2.294-0.689-2.329c-0.063-0.197-0.096-0.403-0.096-0.61V79.839  c0-16.127,4.973-32.674,6.627-37.731c-1.317-0.732-4.1-2.189-9.882-4.974c-7.347-3.537-13.32-4.593-16.157-4.907l-5.233,48.521  c-0.098,0.906-0.796,1.632-1.697,1.765l-14.172,2.082c-0.194,0.028-0.39,0.028-0.582,0l-14.171-2.083  c-0.901-0.132-1.6-0.858-1.697-1.764l-4.56-42.273c-0.005-0.032-0.008-0.063-0.011-0.096l-0.663-6.152  c-2.835,0.314-8.809,1.37-16.157,4.908c-5.783,2.784-8.565,4.241-9.882,4.973c1.654,5.058,6.627,21.604,6.627,37.731v18.806  c0,0.207-0.032,0.413-0.095,0.609c-0.012,0.035-0.291,0.917-0.69,2.33c2.463,1.115,8.847,4.035,13.999,6.651  C81.424,111.378,90.224,116.259,91.09,116.739z M154.657,96.472l3.329,13.271c1.278-2.332,3.733-8.317,4.902-21.263  c1.582-17.521-5.008-21.835-5.075-21.877c-0.57-0.355-0.959-0.995-0.977-1.667l-0.806-30.895c-0.001-0.045-0.001-0.09,0.001-0.135  c0.013-0.469,0.156-11.872-15.788-21.018c-16.602-9.523-37.141-8.875-37.348-8.871c-0.049,0.002-0.102,0.002-0.15,0  c-0.203-0.008-20.742-0.654-37.347,8.871c-15.944,9.146-15.802,20.549-15.787,21.03c0.001,0.037,0.001,0.086,0,0.123l-0.806,30.895  c-0.018,0.7-0.401,1.34-1.01,1.686c-0.034,0.022-6.624,4.336-5.042,21.858c1.165,12.907,3.609,18.895,4.904,21.255l3.327-13.263  V41.289c-0.007-0.297,0.053-0.588,0.17-0.854c-0.001-0.002,0.002-0.003,0.002-0.004c0.001-0.001,0.002-0.002,0.002-0.005  c0.015-0.032,0.03-0.064,0.047-0.096c-0.001-0.002,0.001-0.004,0.002-0.004c0.001-0.002,0.002-0.003,0.002-0.004l0,0  c0.066-0.128,0.147-0.249,0.24-0.361c0.03-0.037,0.065-0.078,0.116-0.128c0.089-0.09,0.188-0.171,0.294-0.244  c0.812-0.599,3.246-2,11.676-6.059c11.163-5.375,19.331-5.437,19.673-5.437c1.021,0,1.879,0.77,1.988,1.786l0.683,6.331h33.882  l0.683-6.331c0.109-1.016,0.967-1.786,1.988-1.786c0.342,0,8.51,0.062,19.673,5.437c8.454,4.07,10.877,5.467,11.682,6.063  c0.1,0.068,0.192,0.145,0.276,0.229c0.063,0.061,0.104,0.11,0.14,0.153c0.024,0.03,0.048,0.06,0.07,0.091  c0.143,0.196,0.248,0.417,0.312,0.648c0.001,0.001,0.001,0.001,0.001,0.001c0.05,0.183,0.074,0.375,0.07,0.568V96.472z   M90.472,78.779l12.349,1.814l12.35-1.814l4.16-38.569H86.312L90.472,78.779z" transform="matrix(0.13151290314968989 0.06575645402910905 -0.06575645402910905 0.13151290314968989 258.2176814581147 256.6649468772918)" id="L1_414"/></defs><g fi:class="KUsePattern" opacity="0.08"><pattern id="pattern_L1_392" width="350" height="350" patternUnits="userSpaceOnUse"><use xlink:href="#L1_392" x="-350" y="-350"/><use xlink:href="#L1_392" x="0" y="-350"/><use xlink:href="#L1_392" x="350" y="-350"/><use xlink:href="#L1_392" x="-350" y="0"/><use xlink:href="#L1_392" x="0" y="0"/><use xlink:href="#L1_392" x="350" y="0"/><use xlink:href="#L1_392" x="-350" y="350"/><use xlink:href="#L1_392" x="0" y="350"/><use xlink:href="#L1_392" x="350" y="350"/></pattern><rect x="0" y="0" width="100%" height="100%" fill="url(#pattern_L1_392)"/></g><g fi:class="KUsePattern" opacity="0.08"><pattern id="pattern_L1_395" width="350" height="350" patternUnits="userSpaceOnUse"><use xlink:href="#L1_395" x="-350" y="-350"/><use xlink:href="#L1_395" x="0" y="-350"/><use xlink:href="#L1_395" x="350" y="-350"/><use xlink:href="#L1_395" x="-350" y="0"/><use xlink:href="#L1_395" x="0" y="0"/><use xlink:href="#L1_395" x="350" y="0"/><use xlink:href="#L1_395" x="-350" y="350"/><use xlink:href="#L1_395" x="0" y="350"/><use xlink:href="#L1_395" x="350" y="350"/></pattern><rect x="0" y="0" width="100%" height="100%" fill="url(#pattern_L1_395)"/></g><g fi:class="KUsePattern" opacity="0.08"><pattern id="pattern_L1_399" width="350" height="350" patternUnits="userSpaceOnUse"><use xlink:href="#L1_399" x="-350" y="-350"/><use xlink:href="#L1_399" x="0" y="-350"/><use xlink:href="#L1_399" x="350" y="-350"/><use xlink:href="#L1_399" x="-350" y="0"/><use xlink:href="#L1_399" x="0" y="0"/><use xlink:href="#L1_399" x="350" y="0"/><use xlink:href="#L1_399" x="-350" y="350"/><use xlink:href="#L1_399" x="0" y="350"/><use xlink:href="#L1_399" x="350" y="350"/></pattern><rect x="0" y="0" width="100%" height="100%" fill="url(#pattern_L1_399)"/></g><g fi:class="KUsePattern" opacity="0.08"><pattern id="pattern_L1_400" width="350" height="350" patternUnits="userSpaceOnUse"><use xlink:href="#L1_400" x="-350" y="-350"/><use xlink:href="#L1_400" x="0" y="-350"/><use xlink:href="#L1_400" x="350" y="-350"/><use xlink:href="#L1_400" x="-350" y="0"/><use xlink:href="#L1_400" x="0" y="0"/><use xlink:href="#L1_400" x="350" y="0"/><use xlink:href="#L1_400" x="-350" y="350"/><use xlink:href="#L1_400" x="0" y="350"/><use xlink:href="#L1_400" x="350" y="350"/></pattern><rect x="0" y="0" width="100%" height="100%" fill="url(#pattern_L1_400)"/></g><g fi:class="KUsePattern" opacity="0.07"><pattern id="pattern_L1_401" width="350" height="350" patternUnits="userSpaceOnUse"><use xlink:href="#L1_401" x="-350" y="-350"/><use xlink:href="#L1_401" x="0" y="-350"/><use xlink:href="#L1_401" x="350" y="-350"/><use xlink:href="#L1_401" x="-350" y="0"/><use xlink:href="#L1_401" x="0" y="0"/><use xlink:href="#L1_401" x="350" y="0"/><use xlink:href="#L1_401" x="-350" y="350"/><use xlink:href="#L1_401" x="0" y="350"/><use xlink:href="#L1_401" x="350" y="350"/></pattern><rect x="0" y="0" width="100%" height="100%" fill="url(#pattern_L1_401)"/></g><g fi:class="KUsePattern" opacity="0.08"><pattern id="pattern_L1_407" width="350" height="350" patternUnits="userSpaceOnUse"><use xlink:href="#L1_407" x="-350" y="-350"/><use xlink:href="#L1_407" x="0" y="-350"/><use xlink:href="#L1_407" x="350" y="-350"/><use xlink:href="#L1_407" x="-350" y="0"/><use xlink:href="#L1_407" x="0" y="0"/><use xlink:href="#L1_407" x="350" y="0"/><use xlink:href="#L1_407" x="-350" y="350"/><use xlink:href="#L1_407" x="0" y="350"/><use xlink:href="#L1_407" x="350" y="350"/></pattern><rect x="0" y="0" width="100%" height="100%" fill="url(#pattern_L1_407)"/></g><g fi:class="KUsePattern" opacity="0.08"><pattern id="pattern_L1_406" width="350" height="350" patternUnits="userSpaceOnUse"><use xlink:href="#L1_406" x="-350" y="-350"/><use xlink:href="#L1_406" x="0" y="-350"/><use xlink:href="#L1_406" x="350" y="-350"/><use xlink:href="#L1_406" x="-350" y="0"/><use xlink:href="#L1_406" x="0" y="0"/><use xlink:href="#L1_406" x="350" y="0"/><use xlink:href="#L1_406" x="-350" y="350"/><use xlink:href="#L1_406" x="0" y="350"/><use xlink:href="#L1_406" x="350" y="350"/></pattern><rect x="0" y="0" width="100%" height="100%" fill="url(#pattern_L1_406)"/></g><g fi:class="KUsePattern" opacity="0.1"><pattern id="pattern_L1_408" width="350" height="350" patternUnits="userSpaceOnUse"><use xlink:href="#L1_408" x="-350" y="-350"/><use xlink:href="#L1_408" x="0" y="-350"/><use xlink:href="#L1_408" x="350" y="-350"/><use xlink:href="#L1_408" x="-350" y="0"/><use xlink:href="#L1_408" x="0" y="0"/><use xlink:href="#L1_408" x="350" y="0"/><use xlink:href="#L1_408" x="-350" y="350"/><use xlink:href="#L1_408" x="0" y="350"/><use xlink:href="#L1_408" x="350" y="350"/></pattern><rect x="0" y="0" width="100%" height="100%" fill="url(#pattern_L1_408)"/></g><g fi:class="KUsePattern" opacity="0.1"><pattern id="pattern_L1_409" width="350" height="350" patternUnits="userSpaceOnUse"><use xlink:href="#L1_409" x="-350" y="-350"/><use xlink:href="#L1_409" x="0" y="-350"/><use xlink:href="#L1_409" x="350" y="-350"/><use xlink:href="#L1_409" x="-350" y="0"/><use xlink:href="#L1_409" x="0" y="0"/><use xlink:href="#L1_409" x="350" y="0"/><use xlink:href="#L1_409" x="-350" y="350"/><use xlink:href="#L1_409" x="0" y="350"/><use xlink:href="#L1_409" x="350" y="350"/></pattern><rect x="0" y="0" width="100%" height="100%" fill="url(#pattern_L1_409)"/></g><g fi:class="KUsePattern" opacity="0.08"><pattern id="pattern_L1_410" width="350" height="350" patternUnits="userSpaceOnUse"><use xlink:href="#L1_410" x="-350" y="-350"/><use xlink:href="#L1_410" x="0" y="-350"/><use xlink:href="#L1_410" x="350" y="-350"/><use xlink:href="#L1_410" x="-350" y="0"/><use xlink:href="#L1_410" x="0" y="0"/><use xlink:href="#L1_410" x="350" y="0"/><use xlink:href="#L1_410" x="-350" y="350"/><use xlink:href="#L1_410" x="0" y="350"/><use xlink:href="#L1_410" x="350" y="350"/></pattern><rect x="0" y="0" width="100%" height="100%" fill="url(#pattern_L1_410)"/></g><g fi:class="KUsePattern" opacity="0.08"><pattern id="pattern_L1_411" width="350" height="350" patternUnits="userSpaceOnUse"><use xlink:href="#L1_411" x="-350" y="-350"/><use xlink:href="#L1_411" x="0" y="-350"/><use xlink:href="#L1_411" x="350" y="-350"/><use xlink:href="#L1_411" x="-350" y="0"/><use xlink:href="#L1_411" x="0" y="0"/><use xlink:href="#L1_411" x="350" y="0"/><use xlink:href="#L1_411" x="-350" y="350"/><use xlink:href="#L1_411" x="0" y="350"/><use xlink:href="#L1_411" x="350" y="350"/></pattern><rect x="0" y="0" width="100%" height="100%" fill="url(#pattern_L1_411)"/></g><g fi:class="KUsePattern" opacity="0.1"><pattern id="pattern_L1_412" width="350" height="350" patternUnits="userSpaceOnUse"><use xlink:href="#L1_412" x="-350" y="-350"/><use xlink:href="#L1_412" x="0" y="-350"/><use xlink:href="#L1_412" x="350" y="-350"/><use xlink:href="#L1_412" x="-350" y="0"/><use xlink:href="#L1_412" x="0" y="0"/><use xlink:href="#L1_412" x="350" y="0"/><use xlink:href="#L1_412" x="-350" y="350"/><use xlink:href="#L1_412" x="0" y="350"/><use xlink:href="#L1_412" x="350" y="350"/></pattern><rect x="0" y="0" width="100%" height="100%" fill="url(#pattern_L1_412)"/></g><g fi:class="KUsePattern" opacity="0.2"><pattern id="pattern_L1_413" width="350" height="350" patternUnits="userSpaceOnUse"><use xlink:href="#L1_413" x="-350" y="-350"/><use xlink:href="#L1_413" x="0" y="-350"/><use xlink:href="#L1_413" x="350" y="-350"/><use xlink:href="#L1_413" x="-350" y="0"/><use xlink:href="#L1_413" x="0" y="0"/><use xlink:href="#L1_413" x="350" y="0"/><use xlink:href="#L1_413" x="-350" y="350"/><use xlink:href="#L1_413" x="0" y="350"/><use xlink:href="#L1_413" x="350" y="350"/></pattern><rect x="0" y="0" width="100%" height="100%" fill="url(#pattern_L1_413)"/></g><g fi:class="KUsePattern" opacity="0.1"><pattern id="pattern_L1_414" width="350" height="350" patternUnits="userSpaceOnUse"><use xlink:href="#L1_414" x="-350" y="-350"/><use xlink:href="#L1_414" x="0" y="-350"/><use xlink:href="#L1_414" x="350" y="-350"/><use xlink:href="#L1_414" x="-350" y="0"/><use xlink:href="#L1_414" x="0" y="0"/><use xlink:href="#L1_414" x="350" y="0"/><use xlink:href="#L1_414" x="-350" y="350"/><use xlink:href="#L1_414" x="0" y="350"/><use xlink:href="#L1_414" x="350" y="350"/></pattern><rect x="0" y="0" width="100%" height="100%" fill="url(#pattern_L1_414)"/></g></svg>