<svg id="Capa_1" enable-background="new 0 0 512 512" height="512" viewBox="0 0 512 512" width="512" xmlns="http://www.w3.org/2000/svg"><g><path d="m466.028 332h-15.838c-2.888-26-13.186-49.792-28.733-69.216l11.244-11.243c5.858-5.858 5.858-15.355 0-21.213-5.857-5.858-15.355-5.858-21.213 0l-11.244 11.244c-19.424-15.547-43.217-25.846-69.216-28.733v-15.839c0-8.284-6.716-15-15-15s-15 6.716-15 15v15.838c-26 2.887-49.792 13.186-69.216 28.733-11.811-11.773-11.282-11.365-12.343-12.237 10.093-13.636 16.963-29.791 19.483-47.334h16.076c8.284 0 15-6.716 15-15s-6.716-15-15-15h-16.076c-2.552-17.763-9.56-34.106-19.862-47.849l11.397-11.397c5.858-5.858 5.858-15.355 0-21.213-5.857-5.858-15.355-5.858-21.213 0l-11.397 11.397c-13.743-10.301-30.086-17.31-47.849-19.862v-16.076c0-8.284-6.716-15-15-15s-15 6.716-15 15v16.076c-17.763 2.552-34.106 9.56-47.849 19.862l-11.398-11.397c-5.857-5.858-15.355-5.858-21.213 0s-5.858 15.355 0 21.213l11.397 11.397c-10.301 13.743-17.309 30.086-19.861 47.849h-16.076c-8.284 0-15 6.716-15 15s6.716 15 15 15h16.076c2.552 17.763 9.56 34.106 19.861 47.849l-11.397 11.397c-5.858 5.858-5.858 15.355 0 21.213 5.857 5.857 15.354 5.859 21.213 0l11.397-11.397c13.743 10.302 30.086 17.31 47.849 19.862v16.076c0 8.284 6.716 15 15 15s15-6.716 15-15v-16.076c18.031-2.591 34.596-9.778 48.467-20.335.952 1.129.347.399 12.104 12.196-15.547 19.423-25.845 43.215-28.733 69.215h-15.838c-8.284 0-15 6.716-15 15s6.716 15 15 15h15.838c2.888 26 13.186 49.792 28.733 69.216l-11.243 11.243c-5.858 5.858-5.858 15.355 0 21.213 5.857 5.858 15.355 5.859 21.213 0l11.243-11.243c19.424 15.547 43.216 25.846 69.216 28.733v15.838c0 8.284 6.716 15 15 15s15-6.716 15-15v-15.838c26-2.887 49.792-13.186 69.216-28.733l11.244 11.244c5.858 5.858 15.355 5.857 21.213 0 5.858-5.858 5.858-15.355 0-21.213l-11.244-11.243c15.548-19.425 25.846-43.217 28.734-69.217h15.838c8.284 0 15-6.716 15-15s-6.716-15-15-15zm-150 120c-57.897 0-105-47.103-105-105s47.103-105 105-105 105 47.103 105 105-47.103 105-105 105zm-181-210c-41.233 0-75-33.534-75-75 0-41.233 33.534-75 75-75 41.231 0 75 33.533 75 75 0 41.355-33.645 75-75 75z"/><path d="m316.028 272c-41.355 0-75 33.645-75 75s33.645 75 75 75 75-33.645 75-75-33.645-75-75-75zm0 120c-24.813 0-45-20.187-45-45s20.187-45 45-45 45 20.187 45 45-20.187 45-45 45z"/><path d="m135.028 122c-24.813 0-45 20.187-45 45s20.187 45 45 45 45-20.187 45-45-20.187-45-45-45zm0 60c-8.271 0-15-6.729-15-15s6.729-15 15-15 15 6.729 15 15-6.729 15-15 15z"/><circle cx="419.028" cy="105" r="15"/><path d="m504.47 137.01-14.317-8.266c5.162-15.421 5.173-32.035 0-47.488l14.317-8.266c7.174-4.142 9.633-13.316 5.49-20.49-4.143-7.176-13.317-9.632-20.49-5.491l-14.347 8.283c-10.583-11.93-24.892-20.481-41.095-23.783v-16.509c0-8.284-6.716-15-15-15s-15 6.716-15 15v16.509c-16.203 3.302-30.512 11.854-41.096 23.784l-14.347-8.283c-7.175-4.143-16.349-1.684-20.49 5.49-4.143 7.175-1.685 16.348 5.49 20.49l14.317 8.266c-5.162 15.421-5.173 32.034 0 47.487l-14.317 8.266c-7.175 4.142-9.633 13.316-5.49 20.49 4.155 7.197 13.336 9.62 20.49 5.49l14.347-8.283c10.583 11.93 24.892 20.481 41.096 23.784v16.51c0 8.284 6.716 15 15 15s15-6.716 15-15v-16.509c16.203-3.302 30.512-11.854 41.095-23.783l14.347 8.283c7.142 4.124 16.33 1.715 20.49-5.491 4.143-7.175 1.684-16.348-5.49-20.49zm-85.442 12.99c-24.813 0-45-20.187-45-45s20.187-45 45-45 45 20.187 45 45-20.187 45-45 45z"/></g></svg>